<?xml version="1.0" standalone="no"?>
<!DOCTYPE svg PUBLIC "-//W3C//DTD SVG 20010904//EN"
 "http://www.w3.org/TR/2001/REC-SVG-20010904/DTD/svg10.dtd">
<svg version="1.0" xmlns="http://www.w3.org/2000/svg"
 width="960.000000pt" height="540.000000pt" viewBox="0 0 960.000000 540.000000"
 preserveAspectRatio="xMidYMid meet">

<g transform="translate(0.000000,540.000000) scale(0.100000,-0.100000)"
fill="#000000" stroke="none">
<path d="M0 3725 l0 -1675 23 4 c43 9 163 16 280 17 109 0 117 2 117 20 0 10
-4 19 -9 19 -5 0 -11 9 -14 20 -7 27 -19 25 -39 -7 l-17 -28 -1 43 c0 36 4 44
24 52 22 8 24 14 19 45 -4 25 -1 41 10 53 19 21 21 36 19 184 l-2 117 -57 3
c-32 2 19 3 112 2 94 -1 188 1 210 6 31 6 15 8 -70 10 -60 1 -114 2 -119 1 -4
-1 -7 32 -4 73 2 44 0 72 -6 69 -5 -4 -6 -1 -2 5 4 6 13 9 21 6 11 -5 15 9 17
68 l3 73 33 3 c24 2 32 8 32 23 0 15 -7 19 -35 19 -28 0 -35 4 -35 19 0 20 23
45 33 34 4 -3 24 -6 44 -7 35 -1 38 -4 41 -31 6 -73 7 -73 59 -63 27 4 91 10
143 12 52 3 103 7 112 11 9 4 23 3 30 -2 7 -4 31 -9 53 -9 68 -2 75 -4 75 -17
0 -8 6 -14 13 -14 8 0 11 11 9 34 -2 18 -1 41 4 50 8 21 11 29 13 43 0 6 8 10
16 10 8 0 15 -4 15 -10 0 -5 7 -10 15 -10 8 0 15 5 15 10 0 6 9 10 21 10 11 0
17 -4 14 -10 -3 -5 1 -10 9 -10 8 0 18 5 21 10 10 16 21 12 32 -12 l10 -23 7
23 c8 23 32 30 38 11 3 -9 9 -9 25 -1 23 13 37 3 46 -33 4 -19 5 -19 6 1 2 32
25 48 41 29 11 -14 15 -14 30 0 18 16 39 4 41 -24 0 -9 5 -4 11 12 11 30 32
36 42 11 4 -9 11 -49 16 -88 6 -39 13 -79 16 -88 5 -16 -5 -18 -109 -18 -62 0
-182 -3 -265 -7 -135 -5 -152 -8 -157 -25 -4 -10 -12 -18 -19 -18 -22 0 -36
-22 -25 -42 12 -23 45 -24 58 -1 8 15 13 15 36 5 35 -16 38 -15 32 8 -9 33 12
33 42 1 23 -24 38 -31 68 -31 37 -1 37 -1 14 -14 -24 -13 -23 -13 16 -12 28 0
39 4 36 13 -6 15 23 18 32 3 3 -5 19 -10 35 -10 22 0 28 4 24 15 -4 10 0 15
14 15 11 0 22 -5 24 -11 3 -10 94 -20 103 -11 3 3 -10 12 -27 21 -18 9 -34 23
-37 31 -4 13 -2 13 12 1 11 -9 17 -10 17 -2 0 6 9 11 21 11 11 0 17 5 14 10
-3 5 3 10 15 10 14 0 19 -4 14 -12 -5 -8 -2 -9 9 -5 11 4 17 1 17 -8 0 -8 4
-15 9 -15 5 0 8 -7 7 -16 0 -9 4 -19 10 -21 6 -2 10 16 10 49 0 29 2 96 4 148
3 91 3 93 10 40 5 -30 8 -110 9 -177 1 -113 3 -123 19 -123 11 0 26 -8 35 -18
14 -16 17 -44 17 -180 0 -162 5 -184 34 -148 8 10 54 15 181 20 439 17 835 37
849 42 9 3 17 9 17 13 4 23 8 91 9 188 3 173 15 201 23 54 4 -68 7 -159 7
-203 l0 -78 40 0 c27 0 43 5 46 15 5 12 26 15 98 16 94 1 311 14 288 17 -7 1
-10 6 -7 12 4 6 -13 10 -42 11 -26 0 -65 1 -86 2 -20 1 -37 -1 -37 -5 0 -15
-187 -9 -199 5 -6 9 -7 17 -1 23 14 14 22 81 10 89 -5 3 -10 22 -10 41 0 34 0
34 45 34 l45 0 0 -45 c0 -25 -4 -45 -9 -45 -8 0 9 -73 20 -84 2 -3 11 15 18
39 11 38 11 47 -1 59 -8 8 -14 25 -12 38 1 12 3 27 3 31 1 5 20 7 44 5 42 -3
42 -3 41 -42 -1 -21 -6 -41 -12 -45 -7 -4 -5 -17 4 -40 9 -20 18 -31 23 -25
15 15 23 72 12 79 -6 3 -11 24 -11 46 0 35 2 39 26 39 22 0 25 2 14 15 -10 13
-9 15 10 15 15 0 20 -5 17 -14 -3 -8 1 -17 9 -20 11 -4 14 -17 12 -43 -3 -33
-7 -38 -31 -41 -30 -4 -27 -22 3 -22 13 0 22 -9 26 -25 8 -32 20 -32 28 0 5
20 13 25 36 25 17 0 30 5 30 10 0 6 -13 10 -28 10 -15 0 -33 5 -40 12 -14 14
-16 74 -3 82 4 3 7 26 6 51 l-3 46 37 -3 c34 -3 36 -5 39 -41 3 -35 6 -38 25
-32 62 19 99 25 177 30 49 4 87 11 92 18 9 16 122 14 142 -2 29 -24 66 -2 90
53 13 28 21 55 19 59 -3 5 -91 6 -197 3 -287 -9 -764 -15 -741 -9 44 10 50 16
21 22 -17 4 -32 15 -37 29 -8 21 -6 22 46 22 l55 0 0 45 c0 32 4 45 14 45 9 0
13 9 12 24 -2 15 3 27 12 31 10 4 11 9 4 18 -8 10 -5 12 16 11 15 -1 35 5 44
14 13 11 47 16 130 18 62 2 154 5 203 8 144 8 298 9 326 1 20 -5 32 -1 48 16
11 12 18 26 15 31 -3 4 0 8 7 8 7 0 9 3 6 6 -3 4 0 16 8 28 19 27 19 33 -3 40
-16 6 -18 13 -11 54 4 26 8 99 8 163 1 64 6 131 13 149 10 29 9 35 -8 47 -10
8 -18 20 -16 28 2 12 -22 14 -145 12 -226 -3 -776 12 -785 21 -13 13 2 42 21
42 13 0 16 8 13 41 -3 31 0 44 14 54 18 14 18 14 -1 15 -18 0 -18 1 -2 17 25
25 38 6 41 -59 1 -30 5 -59 8 -64 4 -5 80 -11 171 -12 l165 -4 7 31 c4 17 4
44 0 60 -5 24 -2 32 14 41 37 19 58 -2 65 -68 l7 -59 67 -7 c37 -3 120 -6 185
-5 96 0 122 -3 137 -16 16 -15 18 -14 24 7 3 13 6 66 6 118 0 91 13 170 28
170 4 0 7 -334 8 -742 0 -504 4 -759 11 -793 l11 -50 -1 51 c0 27 2 55 6 61 5
7 11 1358 7 1521 0 8 -20 12 -65 12 l-65 0 0 47 c0 53 21 49 22 -5 l1 -30 96
-7 c53 -4 134 -7 181 -8 47 -1 90 -5 96 -9 6 -4 27 -5 47 -1 34 5 37 8 37 39
0 19 5 34 10 34 6 0 10 -15 10 -34 0 -32 2 -34 46 -40 26 -3 69 -6 95 -6 l49
0 0 35 c0 24 5 35 15 35 17 0 20 -32 5 -61 -9 -16 -7 -19 15 -19 14 0 28 -7
31 -15 4 -8 10 -15 16 -15 5 0 6 4 3 10 -11 18 49 23 217 16 160 -7 169 -6
168 11 -4 38 0 64 10 58 6 -3 10 -22 10 -41 l0 -34 91 0 c80 0 90 2 88 18 -3
36 1 53 12 46 6 -4 9 -20 6 -39 -5 -31 -4 -33 31 -39 20 -3 49 -6 64 -6 15 0
29 -4 32 -9 3 -4 -6 -6 -19 -3 -14 2 -25 0 -25 -5 0 -6 -24 -8 -55 -5 l-55 4
0 -130 c0 -104 3 -134 15 -146 9 -8 22 -13 30 -10 8 4 15 2 15 -2 0 -5 114 -9
253 -9 195 0 258 3 270 13 8 7 21 12 29 11 30 -4 59 2 53 11 -3 5 9 13 27 18
34 9 -206 20 -515 24 -159 2 -198 19 -72 30 24 2 30 8 32 28 0 14 1 30 2 37 1
7 7 10 14 8 6 -2 76 -6 154 -9 78 -2 147 -7 152 -11 6 -3 7 -15 1 -29 -8 -23
-7 -23 63 -30 77 -7 91 0 80 43 -4 17 -2 22 8 19 8 -3 14 -18 14 -34 l0 -29
115 -7 c63 -4 120 -6 126 -4 6 2 27 38 47 80 20 42 42 76 49 76 7 0 8 3 3 9
-6 5 -107 13 -225 16 -199 7 -240 13 -240 36 0 13 110 11 169 -3 40 -9 56 -9
75 2 18 9 43 10 93 4 63 -7 65 -8 33 -15 -22 -5 1 -7 65 -6 l100 2 -3 -130
c-1 -71 -7 -267 -12 -435 -6 -168 -13 -418 -17 -556 l-6 -250 124 -23 c68 -12
137 -25 153 -28 19 -3 26 -2 22 6 -4 6 -22 11 -39 11 -18 0 -27 4 -21 8 7 4
13 16 16 27 2 14 10 19 28 18 24 -3 24 -2 4 6 -29 13 -40 31 -18 31 16 0 163
-31 234 -50 19 -5 80 -17 135 -26 55 -9 129 -23 165 -31 36 -8 79 -17 95 -19
49 -7 138 -26 171 -35 29 -9 31 -12 30 -57 0 -26 -5 -50 -10 -54 -21 -15 19
-37 87 -48 72 -12 275 -52 457 -90 66 -13 114 -18 156 -13 68 6 139 -11 131
-31 -4 -9 19 -18 72 -29 94 -21 111 -21 111 -2 0 9 6 12 16 8 8 -3 27 1 41 8
21 11 27 11 30 2 3 -7 18 -13 34 -13 16 0 29 -4 29 -9 0 -9 38 -26 75 -34 14
-3 11 -5 -10 -7 l-30 -2 30 -10 c21 -8 30 -8 33 1 5 14 72 15 72 0 0 -7 -11
-9 -30 -5 -16 3 -30 2 -30 -3 0 -4 44 -16 98 -25 53 -10 113 -24 132 -32 64
-24 227 -44 216 -26 -4 8 0 12 11 12 15 0 14 2 -4 15 -14 10 -32 13 -48 9 -14
-3 -39 -1 -56 7 -29 11 -31 15 -25 48 3 20 6 42 6 49 0 19 26 -7 34 -34 3 -11
4 -7 2 9 -2 17 1 27 10 27 16 0 27 32 18 54 -12 31 -30 16 -25 -21 1 -7 -3
-13 -10 -13 -7 0 -9 16 -4 52 8 53 34 127 35 96 0 -10 4 -18 8 -18 9 0 8 38
-3 63 -9 22 -1 102 14 140 11 28 13 29 59 22 28 -4 60 -2 77 5 30 11 175 15
230 7 17 -3 71 -10 120 -17 50 -6 100 -13 113 -16 21 -4 22 -2 22 70 0 68 -3
78 -26 101 -19 19 -29 23 -34 15 -4 -7 -13 -9 -19 -6 -6 4 -8 12 -5 18 5 8 1
9 -11 4 -10 -4 -21 -2 -25 4 -3 5 -28 14 -54 19 -41 8 -50 6 -64 -10 -8 -10
-19 -16 -24 -13 -13 9 -9 24 7 24 8 0 15 5 15 10 0 6 -24 10 -52 10 -29 0 -73
6 -98 13 -50 14 -405 8 -382 -6 6 -5 12 -15 12 -23 0 -12 -5 -11 -26 5 -15 11
-30 18 -35 15 -13 -8 -11 -42 4 -47 6 -3 0 -5 -14 -4 -21 1 -25 5 -21 24 2 13
-1 23 -7 23 -6 0 -11 -6 -12 -12 0 -7 -5 -1 -11 15 -10 28 -33 36 -41 15 -3
-10 -9 -8 -24 5 -23 20 -68 24 -57 5 6 -10 4 -10 -7 -2 -8 6 -27 10 -44 9 -39
-2 -47 -32 -11 -41 14 -3 26 -9 26 -13 0 -11 -50 -32 -60 -26 -18 11 -41 -7
-35 -29 4 -11 9 -29 11 -38 3 -10 0 -18 -6 -18 -21 0 -49 -44 -50 -77 0 -36
-14 -44 -47 -29 -23 11 -31 26 -14 26 5 0 11 9 14 21 3 11 15 23 26 26 12 3
21 11 21 18 0 7 5 15 11 17 13 4 -9 78 -23 78 -11 0 -10 -28 2 -35 19 -12 11
-45 -10 -45 -16 0 -20 7 -20 38 0 29 -5 39 -22 47 -13 6 -29 22 -36 38 -7 15
-17 27 -23 27 -12 0 -11 54 2 122 11 52 10 58 -10 79 -17 19 -21 20 -21 6 0
-9 -5 -17 -11 -17 -6 0 -8 -9 -4 -20 4 -11 2 -20 -4 -20 -6 0 -11 -6 -11 -14
0 -8 -14 -18 -32 -21 -28 -7 -30 -9 -15 -20 16 -12 16 -13 -5 -19 -13 -3 -24
-1 -26 4 -2 5 -9 7 -16 4 -17 -7 -40 22 -32 42 4 10 13 13 26 9 16 -5 20 -2
20 14 0 22 -16 29 -22 9 -3 -7 -12 -9 -22 -5 -9 4 -14 11 -11 17 10 16 -15 12
-32 -5 -8 -8 -20 -12 -26 -8 -8 5 -6 9 6 11 27 5 9 22 -24 22 -16 0 -29 5 -29
10 0 17 -45 11 -68 -10 -22 -21 -37 -27 -28 -11 3 5 0 11 -8 14 -23 9 -54 -4
-59 -24 -3 -10 -13 -19 -24 -19 -16 0 -18 8 -17 60 2 73 17 89 84 90 33 0 41
3 30 10 -8 5 -10 10 -4 10 6 0 9 12 6 30 -6 44 -62 55 -62 12 -1 -16 -1 -16
-11 1 -10 16 -39 24 -39 10 0 -3 8 -15 18 -26 13 -16 14 -19 2 -15 -8 2 -21
15 -27 29 -7 13 -17 23 -22 22 -5 -1 -71 4 -147 12 -77 8 -155 15 -175 15 -22
0 -39 6 -42 14 -9 22 4 27 27 11 23 -17 91 -21 81 -5 -3 5 -22 10 -41 10 -27
0 -34 4 -34 20 0 12 7 20 18 21 11 0 12 2 4 6 -7 3 -21 -2 -31 -11 -18 -16
-20 -15 -39 11 -11 15 -24 24 -28 20 -5 -4 -2 -13 6 -18 12 -9 12 -10 -3 -5
-10 3 -30 6 -43 6 -21 0 -24 4 -24 40 0 34 3 40 21 40 12 0 17 4 13 11 -3 6
-17 9 -30 6 -21 -4 -24 0 -24 23 0 23 3 27 24 23 13 -3 27 0 30 6 4 7 -1 11
-13 11 -19 0 -21 6 -21 79 0 44 4 81 10 83 5 1 11 68 13 147 4 125 7 146 23
158 17 12 17 13 -4 13 -19 0 -22 6 -22 40 0 22 5 40 10 40 6 0 10 18 10 40 0
39 12 53 24 28 3 -7 3 14 -1 47 -11 109 -8 276 6 284 10 6 11 27 6 85 -5 55
-4 76 4 76 8 0 11 28 10 93 -2 103 11 147 37 126 12 -10 14 -3 14 42 1 39 7
65 24 93 14 21 22 45 19 53 -4 9 2 16 16 20 23 6 27 23 9 41 -9 9 -8 12 4 12
9 0 27 21 42 51 28 57 80 102 108 93 12 -3 18 0 18 10 0 9 7 16 15 16 8 0 32
15 52 34 21 18 53 37 70 41 18 3 35 11 38 16 4 5 14 9 25 9 10 0 20 7 24 15 4
10 20 15 52 15 35 0 45 3 41 14 -8 20 4 28 20 14 10 -8 17 -8 25 0 7 7 21 12
33 12 12 0 26 5 32 11 8 8 17 8 29 1 12 -6 27 -7 43 -1 13 6 30 8 37 5 11 -4
47 7 104 32 18 8 -626 11 -2380 10 -2384 0 -2404 -1 -2265 -19 77 -10 176 -23
220 -29 44 -6 94 -10 110 -10 66 2 155 -12 149 -22 -4 -7 -2 -8 5 -4 6 4 18 2
26 -4 8 -7 21 -10 30 -6 20 7 307 -14 325 -25 9 -5 -25 -7 -85 -3 -97 5 -99 5
-81 -13 12 -11 20 -14 23 -7 2 8 33 10 96 7 66 -3 88 -2 77 6 -12 9 -10 11 10
10 14 0 45 -4 70 -8 44 -8 44 -9 10 -11 -19 -1 -46 -6 -60 -11 -20 -7 -17 -8
12 -3 30 4 41 0 55 -16 10 -11 26 -20 35 -20 10 0 27 -6 38 -12 16 -10 24 -10
40 0 16 10 20 10 20 -2 0 -7 7 -19 15 -26 9 -7 15 -29 15 -51 0 -35 3 -39 25
-39 20 0 25 -5 25 -25 0 -22 4 -25 40 -25 37 0 40 -2 40 -27 1 -20 10 -34 33
-49 18 -11 31 -25 31 -30 -13 -95 -13 -124 -1 -124 7 0 17 15 22 32 10 34 45
52 45 24 0 -9 -4 -16 -10 -16 -5 0 -10 -18 -10 -40 0 -37 2 -40 28 -40 21 0
24 -2 12 -10 -8 -5 -24 -8 -35 -6 -11 2 -14 1 -7 -1 6 -3 12 -8 12 -12 0 -8
-88 -33 -130 -37 -36 -3 -35 -3 -22 -16 7 -7 12 -20 12 -30 0 -22 7 -23 26 -3
9 8 12 20 8 26 -5 8 -3 9 7 3 8 -5 52 -7 99 -6 74 3 88 1 107 -17 12 -12 25
-21 28 -21 9 0 6 118 -3 122 -5 2 -5 18 0 36 l9 32 168 -6 168 -7 -1 44 c0 24
1 65 2 92 2 44 4 48 32 54 17 3 51 25 76 49 36 35 53 44 80 44 19 0 33 -3 33
-7 -3 -21 3 -32 21 -38 11 -4 18 -11 15 -16 -4 -5 1 -12 9 -15 9 -3 16 -13 16
-21 0 -12 7 -14 28 -8 58 15 103 17 116 6 10 -8 16 -9 21 -1 3 5 28 10 56 10
27 0 49 5 49 10 0 6 -4 10 -10 10 -5 0 -10 5 -10 11 0 6 9 8 20 4 16 -5 19 -3
13 11 -5 13 -3 15 13 6 13 -7 36 -6 71 1 29 6 55 8 59 5 13 -14 23 -86 19
-138 -3 -30 -10 -197 -16 -370 -11 -355 -18 -470 -25 -482 -3 -4 -23 -8 -45
-8 -21 0 -47 -5 -57 -11 -25 -16 -310 -2 -309 14 1 32 -4 48 -13 42 -5 -3 -10
-15 -10 -25 0 -17 -11 -19 -122 -22 -166 -4 -323 3 -283 13 17 4 -60 6 -170 6
-113 -1 -226 3 -260 9 -41 8 -64 8 -73 2 -8 -7 -44 -8 -100 -3 -48 5 -143 7
-211 6 -107 -1 -122 1 -117 14 3 9 0 15 -9 15 -9 0 -12 -6 -8 -15 4 -13 -4
-15 -56 -14 -34 1 -64 6 -67 11 -3 4 -31 8 -62 9 -31 0 -79 4 -107 9 -27 4
-54 5 -58 0 -11 -10 -227 -1 -252 10 -11 5 -42 11 -69 12 l-49 3 0 145 c1 147
0 146 -19 -25 -3 -22 -8 -51 -12 -65 -6 -20 -5 -22 4 -10 9 12 11 6 7 -28 -3
-23 -2 -40 1 -38 4 2 8 -10 9 -27 3 -34 13 -44 58 -55 20 -5 -5 -9 -80 -12
-60 -3 -115 -1 -122 3 -6 4 -14 4 -17 -1 -3 -6 -24 -6 -52 -1 -25 5 -50 7 -54
4 -5 -3 -93 0 -197 5 -103 6 -260 13 -348 16 -88 3 -166 7 -172 9 -8 3 -13 24
-13 57 0 29 -5 60 -10 68 -8 11 -10 -5 -9 -55 l2 -70 -129 4 c-79 2 -134 8
-141 15 -8 7 -13 62 -15 161 l-3 150 -27 3 c-16 2 -28 -1 -28 -7 0 -6 -8 -11
-17 -11 -15 0 -18 11 -21 64 -1 36 -6 75 -10 88 -4 13 -7 49 -7 80 0 37 -4 58
-11 58 -9 0 -11 -65 -8 -247 3 -137 6 -269 8 -295 l3 -48 -36 0 c-91 1 -531
29 -539 34 -5 3 -10 70 -11 148 -2 121 -4 145 -19 156 -16 12 -18 32 -31 325
-2 40 -21 3 -21 -41 0 -26 -7 -55 -14 -65 -8 -10 -12 -38 -11 -68 1 -28 -1
-67 -6 -87 -5 -25 -4 -39 4 -44 24 -15 -33 -13 -925 40 -164 10 -299 20 -302
23 -2 2 -8 157 -12 344 -12 570 -12 555 -23 555 -5 0 -7 -188 -4 -427 4 -528
3 -702 -7 -818 -7 -89 -7 -89 -9 -25 -11 367 -14 581 -11 898 l3 372 -167 0
-166 0 0 -1675z m6590 1644 c-19 -4 -64 -20 -99 -34 -95 -37 -99 -30 -6 10 44
19 94 34 110 34 30 -1 30 -1 -5 -10z m-1787 -116 c-7 -2 -21 -2 -30 0 -10 3
-4 5 12 5 17 0 24 -2 18 -5z m65 -10 c-10 -2 -18 -9 -18 -14 0 -5 -4 -9 -10
-9 -5 0 -10 7 -10 15 0 10 9 15 28 14 16 -1 20 -3 10 -6z m12 -73 c0 -5 -5
-10 -11 -10 -5 0 -7 5 -4 10 3 6 8 10 11 10 2 0 4 -4 4 -10z m793 -87 c-7 -2
-19 -2 -25 0 -7 3 -2 5 12 5 14 0 19 -2 13 -5z m297 -53 c0 -5 -4 -10 -10 -10
-5 0 -10 5 -10 10 0 6 5 10 10 10 6 0 10 -4 10 -10z m-810 -250 c0 -11 -4 -20
-10 -20 -5 0 -10 9 -10 20 0 11 5 20 10 20 6 0 10 -9 10 -20z m-3510 -170 c0
-5 -4 -10 -10 -10 -5 0 -10 5 -10 10 0 6 5 10 10 10 6 0 10 -4 10 -10z m-1013
-166 c-3 -3 -12 -4 -19 -1 -8 3 -5 6 6 6 11 1 17 -2 13 -5z m96 -1 c-7 -2 -21
-2 -30 0 -10 3 -4 5 12 5 17 0 24 -2 18 -5z m635 -28 c147 -9 277 -18 290 -21
21 -4 22 -8 23 -142 0 -75 3 -164 5 -197 3 -33 2 -75 -1 -94 l-6 -34 -210 7
c-294 10 -699 33 -705 39 -3 3 25 8 63 12 86 8 101 13 43 14 -25 1 -52 5 -60
11 -16 10 -15 12 15 28 19 11 19 11 -3 12 -21 0 -22 3 -16 53 6 47 4 57 -16
75 -22 20 -22 21 -5 78 9 31 15 78 13 103 -3 46 -3 46 32 50 34 4 33 4 -20 17
-50 12 -41 13 118 9 95 -3 293 -12 440 -20z m2733 -353 c4 -18 3 -35 -2 -38
-17 -10 -29 7 -29 42 0 45 22 41 31 -4z m-1681 8 c0 -5 -9 -10 -19 -10 -11 0
-23 5 -26 10 -4 6 5 10 19 10 14 0 26 -4 26 -10z m2478 -42 c-3 -34 -20 -42
-26 -13 -5 22 5 45 18 45 7 0 10 -14 8 -32z m-2495 15 c-7 -2 -19 -2 -25 0 -7
3 -2 5 12 5 14 0 19 -2 13 -5z m-408 -13 c3 -5 1 -10 -4 -10 -6 0 -11 5 -11
10 0 6 2 10 4 10 3 0 8 -4 11 -10z m135 -6 c0 -10 -7 -14 -22 -12 -32 5 -35
28 -4 28 17 0 26 -5 26 -16z m108 -1 c2 -8 -5 -13 -17 -13 -12 0 -21 6 -21 16
0 18 31 15 38 -3z m112 -8 c0 -8 -6 -15 -14 -15 -17 0 -28 14 -19 24 12 12 33
6 33 -9z m110 0 c0 -8 -7 -15 -15 -15 -16 0 -20 12 -8 23 11 12 23 8 23 -8z
m1015 5 c3 -5 1 -10 -4 -10 -6 0 -11 5 -11 10 0 6 2 10 4 10 3 0 8 -4 11 -10z
m2102 -27 c-3 -10 -5 -4 -5 12 0 17 2 24 5 18 2 -7 2 -21 0 -30z m-3007 17 c0
-5 -7 -10 -15 -10 -8 0 -15 5 -15 10 0 6 7 10 15 10 8 0 15 -4 15 -10z m110
-5 c0 -8 -4 -15 -10 -15 -5 0 -10 7 -10 15 0 8 5 15 10 15 6 0 10 -7 10 -15z
m3220 -11 c0 -14 -4 -23 -9 -20 -7 5 -8 23 -2 44 4 12 11 -3 11 -24z m-4000
-4 c6 -10 10 -73 9 -139 -1 -122 11 -179 26 -130 5 13 7 76 6 140 -2 97 1 119
15 133 13 14 45 15 61 2 1 -1 5 -33 8 -72 3 -38 8 -80 11 -93 3 -13 0 -27 -5
-31 -15 -9 -2 -100 14 -100 6 0 12 6 12 13 0 6 3 29 7 50 5 24 3 37 -4 37 -7
0 -10 16 -8 43 l3 42 45 0 45 0 1 -75 c0 -74 10 -127 22 -115 3 3 7 13 8 22 2
9 5 27 9 40 3 12 0 31 -6 40 -7 12 -8 47 -2 108 8 87 9 90 34 93 43 5 49 -15
50 -149 1 -129 5 -163 18 -154 14 8 22 86 11 100 -7 9 -7 27 0 60 6 27 8 68 4
92 l-6 44 38 -3 c39 -3 39 -3 39 -48 1 -25 3 -50 7 -55 9 -15 13 -93 6 -101
-8 -7 1 -65 12 -77 11 -12 22 73 11 87 -6 7 -6 30 0 61 5 28 9 61 8 75 -4 56
-1 61 33 58 l33 -3 10 -98 c6 -54 7 -101 2 -104 -7 -4 0 -69 11 -87 3 -5 9 -1
13 10 11 26 11 82 0 88 -4 3 -4 29 0 58 5 29 7 64 4 78 -8 39 9 55 56 51 13
-1 17 -18 23 -88 3 -48 9 -89 11 -92 13 -12 16 11 24 167 1 14 57 16 66 2 4
-6 8 -61 10 -123 2 -61 4 -120 4 -129 2 -32 19 -19 26 18 4 22 2 39 -4 43 -6
4 -9 25 -8 46 3 39 4 40 45 43 28 2 44 -1 46 -10 3 -7 6 -57 9 -111 l4 -97
-131 5 c-72 3 -223 8 -336 11 -113 3 -266 7 -340 9 -74 3 -155 4 -179 5 -39 0
-42 2 -30 17 10 12 14 53 15 153 1 76 4 143 8 149 12 18 54 13 66 -9z m890 10
c0 -5 -7 -10 -15 -10 -8 0 -15 5 -15 10 0 6 7 10 15 10 8 0 15 -4 15 -10z
m-650 -30 c0 -22 -5 -30 -17 -30 -36 0 -63 13 -63 29 0 25 9 31 47 31 30 0 33
-3 33 -30z m910 20 c0 -5 -4 -10 -10 -10 -5 0 -10 5 -10 10 0 6 5 10 10 10 6
0 10 -4 10 -10z m110 -10 c0 -11 4 -20 9 -20 5 0 9 -19 8 -41 -2 -52 -30 -75
-52 -45 -17 23 -15 86 3 86 6 0 12 9 12 20 0 11 5 20 10 20 6 0 10 -9 10 -20z
m105 0 c3 -5 -1 -10 -9 -10 -9 0 -16 5 -16 10 0 6 4 10 9 10 6 0 13 -4 16 -10z
m100 0 c3 -5 2 -10 -4 -10 -5 0 -13 5 -16 10 -3 6 -2 10 4 10 5 0 13 -4 16
-10z m-571 -6 c17 -6 23 -54 7 -54 -5 0 -7 -9 -4 -20 4 -13 0 -20 -10 -20 -15
0 -46 30 -31 30 5 0 1 5 -8 11 -45 26 -4 72 46 53z m86 -185 c0 -98 -2 -179
-4 -179 -29 0 -31 13 -25 158 4 81 7 162 8 180 1 19 5 31 11 27 6 -4 10 -77
10 -186z m590 181 c0 -5 -7 -7 -15 -4 -8 4 -15 8 -15 10 0 2 7 4 15 4 8 0 15
-4 15 -10z m100 0 c0 -5 -4 -10 -10 -10 -5 0 -10 5 -10 10 0 6 5 10 10 10 6 0
10 -4 10 -10z m103 3 c4 -3 2 -12 -4 -20 -9 -10 -8 -13 5 -13 12 0 15 -9 13
-40 -1 -22 -5 -40 -9 -40 -5 0 -20 0 -34 0 -25 0 -26 2 -21 37 4 20 11 39 17
43 6 4 10 11 9 16 -4 23 9 32 24 17z m-619 -9 c11 -4 16 -19 16 -45 0 -40 -14
-49 -54 -33 -23 9 -5 81 21 84 1 0 8 -3 17 -6z m721 -16 c19 -61 -1 -122 -32
-96 -19 15 -17 88 2 88 9 0 12 6 9 15 -4 8 -2 15 4 15 5 0 13 -10 17 -22z
m1843 6 c55 -5 75 -11 82 -25 9 -16 7 -17 -22 -8 -18 5 -85 9 -148 9 -115 0
-149 8 -135 30 7 11 41 10 223 -6z m-5281 -16 c-3 -8 -6 -5 -6 6 -1 11 2 17 5
13 3 -3 4 -12 1 -19z m2941 -26 l3 -43 -33 3 c-30 3 -33 6 -32 33 3 56 3 56
32 53 24 -3 27 -7 30 -46z m86 42 c11 -4 16 -19 16 -45 0 -37 -2 -39 -30 -39
-28 0 -30 2 -30 39 0 22 5 42 13 44 6 3 13 6 14 6 1 1 8 -2 17 -5z m114 -33
c6 -39 -7 -71 -28 -71 -20 0 -27 19 -28 73 0 25 3 28 27 25 19 -2 27 -10 29
-27z m100 -18 c3 -40 1 -43 -21 -43 -34 0 -52 23 -37 49 6 12 8 21 5 21 -4 0
-3 5 0 11 4 5 17 9 28 7 18 -2 23 -11 25 -45z m-2485 30 c-7 -2 -19 -2 -25 0
-7 3 -2 5 12 5 14 0 19 -2 13 -5z m2785 -41 c3 -42 2 -43 -25 -40 -22 2 -29 9
-31 31 -5 42 5 59 30 55 19 -2 24 -10 26 -46z m1537 4 c17 -3 98 -7 180 -8
121 -2 149 0 147 10 -1 8 3 12 10 9 7 -2 12 -10 11 -16 -2 -7 13 -11 37 -11
31 0 40 -4 40 -17 1 -17 1 -17 11 0 7 12 23 17 59 17 27 0 52 -5 55 -10 5 -8
11 -7 21 1 12 10 18 8 30 -7 9 -10 13 -14 11 -9 -3 6 1 16 9 23 8 7 14 9 15 5
0 -4 2 -18 5 -30 l4 -22 -158 5 c-86 3 -226 6 -311 7 -144 2 -155 3 -162 22
-7 18 -8 18 -8 2 -1 -16 -10 -18 -73 -15 -82 3 -91 16 -28 37 31 10 40 17 35
29 -5 14 -4 14 12 0 10 -9 32 -18 48 -22z m-80 14 c3 -5 2 -10 -4 -10 -5 0
-13 5 -16 10 -3 6 -2 10 4 10 5 0 13 -4 16 -10z m130 0 c3 -5 2 -10 -4 -10 -5
0 -13 5 -16 10 -3 6 -2 10 4 10 5 0 13 -4 16 -10z m40 0 c3 -5 1 -10 -4 -10
-6 0 -11 5 -11 10 0 6 2 10 4 10 3 0 8 -4 11 -10z m-4973 -42 l15 -22 12 21
c12 24 41 21 41 -3 0 -8 5 -14 10 -14 6 0 10 7 10 15 0 8 9 15 20 15 11 0 20
-7 20 -15 0 -20 10 -19 25 2 13 17 51 11 40 -6 -3 -5 -1 -12 4 -15 5 -3 11 3
14 14 7 26 37 26 44 0 5 -19 6 -19 24 3 19 22 19 22 35 2 11 -14 18 -16 21 -7
7 17 43 15 43 -3 0 -8 5 -15 10 -15 6 0 10 7 10 15 0 8 9 15 20 15 11 0 23 -7
26 -15 4 -8 10 -15 16 -15 5 0 6 5 3 10 -4 6 5 10 19 10 14 0 25 -4 24 -9 -2
-5 2 -9 7 -9 6 0 9 4 7 9 -1 5 10 9 24 9 14 0 23 -4 19 -10 -3 -5 1 -10 9 -10
9 0 16 5 16 10 0 16 32 11 46 -7 13 -17 13 -17 14 0 0 21 40 24 40 2 0 -20 10
-19 26 3 13 16 15 16 29 -2 15 -20 15 -20 30 0 14 18 16 18 29 2 13 -18 32
-25 22 -9 -10 16 23 20 39 5 13 -14 17 -14 32 1 16 16 18 16 31 -1 10 -13 16
-15 19 -6 7 19 43 15 43 -5 1 -17 1 -17 11 0 12 21 38 22 45 2 4 -8 10 -15 15
-15 5 0 9 7 9 15 0 8 7 15 15 15 8 0 15 -4 15 -9 0 -5 3 -16 6 -25 5 -14 -9
-15 -139 -10 -127 5 -145 4 -150 -10 -9 -23 1 -25 153 -28 l135 -3 6 -73 c8
-103 29 -119 29 -22 0 110 8 81 14 -52 l5 -118 -27 1 c-18 0 -22 3 -12 7 8 4
16 23 18 44 l2 36 -82 6 c-46 3 -202 8 -348 11 -146 3 -368 10 -495 15 -126 5
-238 10 -249 10 -17 0 -18 8 -14 118 5 143 16 171 50 120z m2528 -2 c0 -9 -30
-14 -35 -6 -4 6 3 10 14 10 12 0 21 -2 21 -4z m203 -13 c-7 -2 -19 -2 -25 0
-7 3 -2 5 12 5 14 0 19 -2 13 -5z m102 -3 c3 -5 -1 -10 -9 -10 -9 0 -16 5 -16
10 0 6 4 10 9 10 6 0 13 -4 16 -10z m202 -6 c-3 -3 -12 -4 -19 -1 -8 3 -5 6 6
6 11 1 17 -2 13 -5z m110 -10 c-3 -3 -12 -4 -19 -1 -8 3 -5 6 6 6 11 1 17 -2
13 -5z m-317 -24 c0 -5 -4 -10 -9 -10 -6 0 -13 5 -16 10 -3 6 1 10 9 10 9 0
16 -4 16 -10z m210 -10 c0 -5 -4 -10 -9 -10 -6 0 -13 5 -16 10 -3 6 1 10 9 10
9 0 16 -4 16 -10z m2145 1 c3 -5 1 -12 -4 -15 -5 -3 -11 1 -15 9 -6 16 9 21
19 6z m-2164 -41 c22 -12 24 -26 6 -44 -19 -19 -37 -7 -37 25 0 32 3 34 31 19z
m-3244 -102 c-3 -7 -5 -2 -5 12 0 14 2 19 5 13 2 -7 2 -19 0 -25z m2103 -47
c0 -5 -11 -8 -25 -8 -14 0 -25 3 -25 8 0 5 11 9 25 9 14 0 25 -4 25 -9z m1055
-1 c4 -6 -5 -10 -20 -10 -15 0 -24 4 -20 10 3 6 12 10 20 10 8 0 17 -4 20 -10z
m-3168 -72 c-2 -13 -4 -5 -4 17 -1 22 1 32 4 23 2 -10 2 -28 0 -40z m1601 35
c2 -8 -6 -13 -22 -13 -17 0 -26 5 -26 16 0 19 41 16 48 -3z m111 3 c9 -11 9
-15 -1 -19 -10 -4 -8 -9 5 -17 24 -15 21 -47 -4 -55 -12 -4 -18 -10 -13 -14
25 -18 39 -68 37 -134 -1 -38 -5 -72 -7 -75 -3 -2 -17 -4 -31 -4 -14 0 -28 -5
-31 -10 -3 -5 14 -8 42 -6 l48 3 8 44 c4 26 4 49 -2 56 -5 7 -7 15 -4 18 3 3
7 43 8 89 l2 83 28 3 c16 2 32 0 37 -5 5 -5 12 -72 14 -148 3 -76 8 -141 10
-144 13 -12 19 18 20 97 2 206 2 202 33 202 15 0 32 -4 39 -8 12 -8 21 -177 9
-189 -3 -4 -3 -28 0 -54 l6 -48 -33 -4 c-19 -2 -16 -2 6 0 22 2 50 4 63 4 21
1 22 3 9 18 -20 24 -10 54 16 47 17 -4 14 0 -11 20 -27 21 -32 32 -30 61 1 19
6 37 11 40 5 3 6 27 2 53 -6 43 -4 49 14 55 12 3 30 4 41 0 16 -5 19 -15 19
-58 -1 -29 2 -69 6 -90 4 -22 3 -42 -3 -50 -12 -14 -2 -79 14 -84 17 -6 33 72
19 91 -17 23 -4 80 19 84 10 2 28 1 42 -2 23 -6 23 -9 22 -91 l-2 -84 -31 -4
c-27 -3 -27 -4 7 -5 20 -1 40 3 44 10 4 6 8 48 8 92 1 87 7 95 62 82 20 -5 24
-12 24 -46 0 -21 -4 -41 -9 -44 -9 -6 10 -76 20 -76 11 0 21 72 11 82 -5 5 -6
25 -3 46 7 39 23 49 67 38 20 -5 24 -12 24 -46 0 -21 -4 -41 -9 -44 -11 -7 1
-68 16 -73 13 -5 27 62 16 80 -4 6 -8 26 -8 44 0 25 5 33 23 38 56 14 70 -9
71 -113 0 -29 3 -61 6 -71 8 -27 -12 -31 -107 -22 -46 4 -135 5 -198 1 -117
-6 -699 -4 -707 3 -2 2 1 16 6 30 6 15 10 41 11 59 0 104 2 123 11 126 10 4
12 45 2 56 -14 13 -13 47 2 52 8 4 26 3 40 0 22 -6 24 -11 24 -59 0 -28 1 -93
3 -144 l3 -92 -40 -4 c-35 -3 -34 -4 13 -5 l52 -2 2 33 c1 17 0 60 -1 95 -3
57 -1 64 18 69 22 6 24 44 3 51 -18 6 -14 49 4 56 12 5 14 10 5 20 -6 7 -8 16
-4 19 11 11 30 8 42 -7z m119 -8 c-3 -7 -13 -13 -23 -13 -10 0 -20 6 -22 13
-3 7 5 12 22 12 17 0 25 -5 23 -12z m117 2 c8 -13 -20 -24 -41 -16 -20 8 -9
26 16 26 10 0 22 -5 25 -10z m109 -5 c4 -11 -1 -15 -19 -15 -16 0 -25 6 -25
15 0 8 9 15 19 15 10 0 21 -7 25 -15z m109 -13 c-2 -12 2 -22 7 -22 6 0 10
-12 10 -26 0 -23 -3 -25 -37 -22 -31 2 -38 7 -39 26 -1 13 5 22 13 22 9 0 12
7 7 26 -6 23 -4 25 17 22 18 -2 23 -9 22 -26z m326 19 c16 -10 6 -31 -14 -31
-17 0 -28 17 -20 30 8 12 16 12 34 1z m91 -193 l0 -203 -77 5 -78 5 61 3 62 3
1 111 c1 61 4 114 6 118 2 4 5 41 6 83 1 43 6 77 10 77 5 0 9 -91 9 -202z
m-305 182 c3 -5 1 -10 -4 -10 -6 0 -11 -4 -11 -10 0 -5 7 -10 15 -10 9 0 15
-10 15 -26 0 -23 -3 -25 -37 -22 -31 2 -38 7 -39 25 -1 14 6 24 20 28 13 4 16
8 9 12 -7 2 -13 9 -13 14 0 12 37 12 45 -1z m108 3 c4 -3 2 -12 -3 -18 -8 -9
-6 -14 5 -19 8 -3 15 -15 15 -26 0 -18 -5 -21 -37 -18 -31 2 -39 7 -41 26 -2
15 2 22 13 22 12 0 15 6 10 20 -5 15 -2 20 13 20 10 0 22 -3 25 -7z m372 -2
c3 -5 1 -13 -5 -16 -15 -9 -43 3 -35 15 8 13 32 13 40 1z m105 -7 c0 -9 -7
-14 -17 -12 -25 5 -28 28 -4 28 12 0 21 -6 21 -16z m100 -4 c0 -5 -6 -10 -14
-10 -8 0 -18 5 -21 10 -3 6 3 10 14 10 12 0 21 -4 21 -10z m108 -53 l4 -57
-31 0 c-29 0 -31 2 -31 39 0 25 5 41 15 45 9 3 12 12 8 22 -4 12 -1 15 12 12
15 -2 20 -14 23 -61z m97 54 c3 -5 0 -13 -6 -17 -7 -4 -8 -9 -1 -13 5 -3 12
-22 13 -41 4 -33 2 -35 -26 -35 -28 0 -30 3 -30 38 -1 24 4 37 13 37 9 0 11 7
7 20 -4 14 -2 20 9 20 8 0 17 -4 21 -9z m105 -7 c0 -9 -7 -14 -17 -12 -25 5
-28 28 -4 28 12 0 21 -6 21 -16z m98 -2 c3 -9 -2 -13 -14 -10 -9 1 -19 9 -22
16 -3 9 2 13 14 10 9 -1 19 -9 22 -16z m97 7 c10 -15 -1 -23 -20 -15 -9 3 -13
10 -10 16 8 13 22 13 30 -1z m103 -6 c2 -8 -5 -13 -17 -13 -12 0 -21 6 -21 16
0 18 31 15 38 -3z m-2533 -33 l260 -6 -272 -2 c-267 -2 -319 2 -291 19 7 5 20
6 28 2 8 -4 132 -10 275 -13z m1473 -7 c3 -21 -1 -23 -37 -23 -37 0 -41 2 -41
26 0 23 3 25 38 22 30 -2 38 -7 40 -25z m252 -10 c0 -41 -8 -57 -27 -60 -12
-3 -17 10 -26 70 -4 24 -1 27 24 27 27 0 29 -3 29 -37z m105 -8 c0 -36 -2 -40
-25 -40 -22 0 -25 5 -28 43 -3 42 -2 43 25 40 25 -3 28 -7 28 -43z m100 0 c0
-36 -2 -40 -25 -40 -22 0 -25 5 -28 43 -3 42 -2 43 25 40 25 -3 28 -7 28 -43z
m-2367 28 c-49 -2 -127 -2 -175 0 -49 1 -9 3 87 3 96 0 136 -2 88 -3z m2680
-35 c3 -37 3 -38 -32 -38 -34 0 -36 2 -36 33 0 41 7 49 40 45 21 -3 25 -9 28
-40z m92 3 c0 -22 -5 -41 -12 -43 -26 -10 -38 4 -38 43 0 35 3 39 25 39 22 0
25 -4 25 -39z m100 -1 c0 -38 -2 -40 -30 -40 -27 0 -30 3 -30 33 0 40 6 47 37
47 20 0 23 -5 23 -40z m102 29 c2 -5 2 -28 0 -50 -4 -42 -28 -53 -51 -25 -9
11 -10 60 -2 84 3 7 50 0 53 -9z m-2779 -26 c-7 -2 -19 -2 -25 0 -7 3 -2 5 12
5 14 0 19 -2 13 -5z m-795 -138 c-1 -35 -2 -33 -8 15 -5 30 -8 71 -8 90 1 28
2 25 8 -15 5 -27 8 -68 8 -90z m292 109 c25 -1 49 3 53 10 6 8 10 8 14 -1 6
-16 35 -17 51 -1 9 9 12 9 12 0 0 -15 36 -16 45 -2 5 8 11 7 21 -1 7 -6 25 -8
38 -5 14 3 27 2 30 -2 6 -10 93 -8 103 2 3 3 12 1 19 -5 9 -7 19 -6 34 3 17
11 22 11 30 -2 8 -13 13 -13 31 -2 13 9 24 10 28 4 3 -5 47 -10 96 -10 50 0
123 -1 164 -3 52 -2 76 1 79 10 3 8 8 9 17 1 7 -6 38 -11 69 -12 32 -1 59 -5
62 -10 3 -5 12 -4 19 2 17 14 45 2 45 -21 0 -17 -8 -19 -63 -19 -48 0 -64 -3
-64 -14 0 -10 19 -16 64 -21 55 -6 63 -9 64 -28 1 -12 3 -29 4 -37 1 -8 3 -31
4 -49 2 -63 20 -19 24 59 2 41 3 5 3 -80 l-1 -155 -149 -3 c-83 -1 -147 1
-143 5 4 4 20 8 35 9 15 1 50 3 77 4 l50 3 -60 7 c-55 5 -52 6 48 10 59 3 107
2 107 -2 0 -5 -19 -8 -42 -8 -23 0 -39 -2 -37 -4 7 -8 94 -11 93 -4 0 4 2 28
6 53 4 25 3 48 -1 51 -4 2 -79 5 -165 5 -88 0 -167 5 -177 11 -14 7 -17 7 -13
-1 5 -8 -31 -11 -121 -12 -70 -1 -130 -1 -133 -1 -3 0 -133 3 -290 6 -156 4
-286 8 -288 11 -2 2 11 8 29 14 30 8 31 9 9 10 -24 1 -26 4 -23 49 1 26 2 57
2 70 l1 22 156 -3 c127 -4 157 -2 161 10 3 8 3 16 0 19 -2 3 -71 7 -153 9 -82
2 -152 4 -156 4 -12 1 -9 36 4 49 6 6 16 8 22 4 6 -4 31 -7 56 -8z m2090 -5
c0 -5 -7 -9 -15 -9 -15 0 -20 12 -9 23 8 8 24 -1 24 -14z m-120 1 c0 -5 -2
-10 -4 -10 -3 0 -8 5 -11 10 -3 6 -1 10 4 10 6 0 11 -4 11 -10z m593 -27 c-7
-2 -19 -2 -25 0 -7 3 -2 5 12 5 14 0 19 -2 13 -5z m104 1 c-3 -3 -12 -4 -19
-1 -8 3 -5 6 6 6 11 1 17 -2 13 -5z m100 0 c-3 -3 -12 -4 -19 -1 -8 3 -5 6 6
6 11 1 17 -2 13 -5z m100 0 c-3 -3 -12 -4 -19 -1 -8 3 -5 6 6 6 11 1 17 -2 13
-5z m303 -4 c0 -5 -4 -10 -9 -10 -6 0 -13 5 -16 10 -3 6 1 10 9 10 9 0 16 -4
16 -10z m131 -171 c16 -26 -5 -32 -93 -25 -49 4 -94 4 -100 0 -11 -7 -707 -6
-719 2 -4 2 -5 12 -2 22 4 18 26 18 455 16 351 -2 453 -6 459 -15z m-1953 -66
c-10 -2 -28 -2 -40 0 -13 2 -5 4 17 4 22 1 32 -1 23 -4z m95 0 c-7 -2 -19 -2
-25 0 -7 3 -2 5 12 5 14 0 19 -2 13 -5z m120 0 c-7 -2 -19 -2 -25 0 -7 3 -2 5
12 5 14 0 19 -2 13 -5z m555 0 c-10 -2 -28 -2 -40 0 -13 2 -5 4 17 4 22 1 32
-1 23 -4z m772 -4 c0 -5 -11 -9 -25 -9 -33 0 -33 15 0 16 14 1 25 -2 25 -7z
m-1054 -7 c-5 -8 -66 -4 -66 4 0 2 16 4 36 4 19 0 33 -4 30 -8z m456 -414 c-4
-3 -232 -11 -507 -17 -595 -13 -575 -13 -575 -3 0 4 129 9 288 11 414 4 749
15 759 24 4 5 9 72 11 150 4 238 15 255 23 37 4 -107 4 -198 1 -202z m4449
359 c-8 -8 -11 -7 -11 4 0 20 13 34 18 19 3 -7 -1 -17 -7 -23z m-5423 6 c2 -8
-6 -13 -22 -13 -25 0 -33 10 -19 24 10 10 36 3 41 -11z m120 0 c2 -8 -6 -13
-22 -13 -17 0 -26 5 -26 16 0 19 41 16 48 -3z m110 0 c2 -8 -6 -13 -22 -13
-25 0 -33 10 -19 24 10 10 36 3 41 -11z m116 2 c3 -8 1 -15 -4 -15 -6 0 -10
-4 -10 -10 0 -5 7 -10 15 -10 9 0 15 -10 15 -26 0 -23 -3 -25 -37 -22 -31 2
-39 7 -41 26 -3 17 2 22 17 22 12 0 21 5 21 10 0 6 -4 10 -10 10 -5 0 -10 7
-10 15 0 8 9 15 19 15 10 0 21 -7 25 -15z m106 0 c11 -13 8 -15 -14 -15 -25 0
-33 10 -19 23 10 11 19 8 33 -8z m118 -2 c2 -8 -6 -13 -22 -13 -17 0 -26 5
-26 16 0 19 41 16 48 -3z m108 5 c4 -6 2 -14 -5 -16 -9 -3 -8 -7 3 -16 10 -8
15 -34 16 -91 3 -107 4 -102 -30 -107 -53 -8 -65 10 -52 78 6 32 9 72 7 88 -3
22 1 29 17 34 13 3 16 7 8 12 -15 9 -4 30 15 30 8 0 17 -5 21 -12z m112 -5 c2
-8 -6 -13 -22 -13 -17 0 -26 5 -26 16 0 19 41 16 48 -3z m102 2 c0 -8 -9 -15
-20 -15 -20 0 -26 11 -13 23 12 13 33 7 33 -8z m255 5 c3 -5 1 -10 -4 -10 -6
0 -11 -4 -11 -10 0 -5 7 -10 15 -10 11 0 15 -11 15 -41 0 -39 -1 -40 -32 -37
-31 3 -33 6 -33 41 -1 24 4 37 13 37 9 0 11 7 7 20 -4 14 -2 20 9 20 8 0 18
-4 21 -10z m3543 -7 c2 -9 -9 -13 -37 -13 -30 0 -41 4 -41 16 0 11 9 14 37 12
20 -2 38 -9 41 -15z m-5435 -30 c-7 -2 -21 -2 -30 0 -10 3 -4 5 12 5 17 0 24
-2 18 -5z m219 -2 c-8 -4 -13 -11 -13 -15 1 -3 1 -9 1 -13 0 -5 -190 -7 -421
-5 -232 1 -419 5 -416 8 3 4 185 8 404 9 219 2 405 5 413 6 8 1 -14 5 -50 9
l-65 7 80 1 c47 1 74 -2 67 -7z m522 3 c9 -3 16 -17 16 -30 0 -21 -5 -24 -35
-24 -30 0 -35 3 -35 24 0 15 7 26 18 29 9 3 18 5 19 6 1 0 8 -2 17 -5z m120 0
c9 -3 16 -17 16 -30 0 -21 -5 -24 -35 -24 -37 0 -52 17 -41 45 6 16 33 20 60
9z m110 0 c9 -3 16 -17 16 -30 0 -21 -5 -24 -35 -24 -30 0 -35 3 -35 24 0 15
7 26 18 29 9 3 18 5 19 6 1 0 8 -2 17 -5z m230 0 c20 -8 21 -43 1 -50 -22 -9
-65 4 -65 19 0 29 31 44 64 31z m124 -26 c3 -24 0 -28 -22 -28 -37 0 -56 10
-56 29 0 26 11 32 45 29 24 -2 31 -8 33 -30z m219 -33 c2 -33 4 -76 5 -95 3
-33 1 -35 -30 -38 -18 -2 -40 2 -48 9 -18 15 -18 58 1 79 12 13 13 23 4 48
-16 46 -6 64 33 60 33 -3 33 -3 35 -63z m102 43 c10 -28 -9 -43 -45 -34 -17 5
-24 13 -24 31 0 21 5 25 30 25 23 0 33 -6 39 -22z m3776 12 c7 -12 -12 -12
-40 0 -18 8 -17 9 7 9 15 1 30 -3 33 -9z m-6065 -26 c0 -2 -11 -4 -25 -4 -14
0 -25 4 -25 9 0 4 11 6 25 3 14 -2 25 -6 25 -8z m6115 0 c61 -4 115 -10 121
-15 10 -8 128 -17 264 -20 25 0 52 -8 61 -16 12 -10 28 -12 53 -8 29 6 37 4
43 -11 4 -11 2 -19 -6 -22 -11 -4 -11 -6 0 -14 10 -7 4 -8 -19 -5 -63 7 -15
-14 53 -24 37 -5 78 -12 91 -15 25 -6 32 -28 13 -40 -8 -4 -7 -9 2 -15 10 -6
3 -9 -21 -10 l-35 -1 33 -8 c43 -10 51 -19 30 -34 -13 -10 -15 -15 -6 -24 15
-15 0 -15 -62 -1 -80 19 -289 45 -280 35 3 -3 26 -8 50 -11 25 -3 47 -10 48
-15 2 -6 31 -10 65 -10 128 0 219 -29 176 -56 -8 -4 -7 -9 2 -15 24 -14 5 -18
-40 -8 -25 5 -51 8 -60 6 -9 -1 12 -9 47 -15 60 -13 79 -30 51 -48 -8 -4 -7
-9 2 -15 20 -12 3 -11 -92 7 -46 9 -89 20 -96 25 -7 7 -12 6 -15 -2 -3 -10
-12 -9 -36 2 -33 14 -45 33 -14 22 9 -3 14 -3 10 1 -3 4 -21 10 -38 13 -28 4
-32 2 -26 -12 5 -15 2 -16 -21 -10 -16 4 -61 13 -101 20 -40 7 -76 16 -80 20
-4 4 3 4 15 1 12 -4 24 -2 27 3 4 6 -24 10 -76 9 -46 -1 -99 2 -118 7 -19 4
-66 12 -104 19 -39 7 -72 18 -74 25 -3 10 0 10 16 2 11 -6 24 -11 29 -11 4 1
-5 8 -22 17 -17 9 -24 18 -18 20 14 5 151 -12 228 -28 28 -5 82 -14 122 -19
39 -4 97 -14 129 -20 64 -14 91 -17 179 -26 33 -3 58 -3 55 0 -3 3 -24 6 -45
7 -51 3 -76 15 -69 34 5 11 -1 15 -17 14 -13 0 -18 -3 -11 -6 27 -11 9 -21
-30 -16 -90 10 -212 33 -217 40 -3 5 -32 8 -63 9 -31 0 -81 6 -110 12 -29 6
-75 14 -103 19 -41 7 -51 12 -53 30 -3 22 -1 23 45 18 26 -3 91 -13 143 -21
52 -8 131 -19 175 -24 44 -6 86 -12 93 -15 6 -2 12 0 12 5 0 5 -26 12 -57 15
-32 4 -65 12 -73 17 -11 7 -10 8 8 5 12 -3 22 -1 22 4 0 5 -9 9 -20 9 -12 0
-20 7 -20 16 0 15 9 16 68 9 37 -4 95 -9 129 -11 61 -4 62 -3 46 16 -21 24
-35 26 -27 5 5 -11 -1 -15 -17 -15 -45 1 -101 18 -116 37 -13 16 -14 16 -9 1
4 -15 -1 -18 -29 -18 -37 0 -56 16 -28 23 11 3 7 5 -10 6 -17 1 -26 -3 -22 -9
4 -7 -2 -9 -17 -6 -12 3 -81 13 -153 21 -71 9 -133 22 -137 28 -13 20 -4 42
16 39 11 -2 22 2 27 9 5 9 11 9 23 -4 10 -10 43 -17 93 -22 43 -3 96 -10 118
-15 69 -15 323 -36 313 -25 -4 4 -22 9 -40 11 -18 2 -34 9 -36 14 -2 6 -11 10
-20 9 -11 0 -12 -2 -4 -6 6 -2 10 -8 7 -13 -2 -4 -31 -2 -62 4 -53 11 -58 14
-56 37 1 13 0 18 -3 12 -3 -7 -13 -13 -21 -13 -13 0 -13 -3 -3 -15 16 -20 -4
-20 -23 -1 -8 8 -18 11 -23 7 -15 -13 -184 10 -184 26 0 7 -4 13 -10 13 -5 0
-10 -4 -10 -10 0 -5 -5 -10 -11 -10 -5 0 -7 5 -3 11 5 9 -6 10 -39 5 -48 -7
-64 2 -53 31 4 10 13 13 29 9 12 -3 72 -9 132 -12z m-4629 -61 c-10 -10 -19 5
-10 18 6 11 8 11 12 0 2 -7 1 -15 -2 -18z m-106 7 c0 -5 -4 -10 -10 -10 -5 0
-10 5 -10 10 0 6 5 10 10 10 6 0 10 -4 10 -10z m5391 -22 c42 -12 53 -38 17
-38 -21 0 -21 0 -2 -15 18 -14 16 -15 -21 -9 -53 9 -55 10 -55 45 0 32 6 34
61 17z m-5377 -4 c11 -4 16 -19 16 -51 l0 -44 -42 3 c-43 3 -43 3 -46 45 -3
37 0 42 20 46 13 2 26 5 30 6 3 0 13 -2 22 -5z m132 -29 c9 -47 0 -65 -33 -66
-24 -2 -25 -2 -5 -6 24 -5 24 -5 27 -45 2 -22 -2 -28 -19 -29 -13 -1 -7 -4 14
-10 25 -6 38 -4 45 5 6 7 17 15 25 19 12 4 11 6 -2 6 -22 1 -24 31 -3 31 20 0
19 7 -5 33 -15 15 -20 32 -18 57 3 38 20 47 64 36 20 -5 24 -12 24 -47 0 -25
-5 -42 -15 -45 -12 -5 -11 -12 5 -42 11 -20 20 -44 20 -52 0 -10 7 -7 20 10
21 27 26 45 10 35 -5 -3 -10 -2 -10 3 0 6 18 12 40 14 39 3 40 3 40 -30 l0
-33 77 3 c75 3 78 4 78 28 0 16 6 26 19 28 11 2 16 0 12 -6 -3 -6 3 -13 14
-17 11 -3 20 -13 20 -22 0 -10 6 -13 16 -9 9 3 18 6 20 6 2 0 4 11 4 25 0 16
6 25 15 25 8 0 15 7 15 15 0 8 7 15 15 15 16 0 30 -42 22 -63 -4 -10 2 -13 19
-9 17 3 23 9 20 21 -8 25 10 46 41 47 33 1 43 -11 43 -48 0 -25 2 -26 38 -21
48 8 54 13 13 13 -30 0 -31 2 -31 38 0 20 -2 56 -6 80 l-6 42 45 0 44 0 6 -97
c2 -54 4 -99 3 -100 -3 -4 -363 -14 -662 -18 l-331 -6 5 53 c5 61 10 70 23 45
6 -10 22 -17 40 -17 24 0 30 -4 27 -17 -3 -13 -13 -18 -36 -16 -19 0 -32 -3
-30 -9 4 -12 78 -17 104 -7 11 4 13 8 7 8 -8 1 -13 14 -13 31 0 23 3 28 17 23
13 -5 12 0 -5 23 -17 23 -20 37 -16 67 6 35 8 37 45 37 36 0 39 -2 45 -35z
m222 -17 l3 -48 -34 0 c-19 0 -40 6 -46 14 -10 11 -10 55 -2 84 1 2 18 2 39 0
37 -3 37 -3 40 -50z m116 21 c11 -56 9 -59 -38 -59 -49 0 -54 6 -48 56 4 32 6
34 42 34 34 0 38 -3 44 -31z m110 0 c11 -56 9 -59 -38 -59 -49 0 -56 8 -49 58
5 30 8 32 43 32 34 0 38 -3 44 -31z m4126 -29 c105 -11 174 -34 167 -54 -8
-25 -243 1 -263 28 -6 9 -20 16 -30 15 -18 0 -18 -1 1 -9 15 -6 16 -9 4 -9
-22 -1 -28 7 -22 30 4 12 11 18 22 15 9 -3 63 -10 121 -16z m1387 -42 c-3 -8
-6 -5 -6 6 -1 11 2 17 5 13 3 -3 4 -12 1 -19z m-117 2 c13 -9 13 -10 0 -9 -8
0 -24 4 -35 9 l-20 9 20 0 c11 0 27 -4 35 -9z m-5404 -47 c-11 -11 -17 4 -9
23 7 18 8 18 11 1 2 -10 1 -21 -2 -24z m-106 -8 c0 -18 -5 -25 -19 -25 -33 0
-51 11 -51 31 0 15 7 19 35 19 31 0 35 -3 35 -25z m-760 -45 c0 -5 -10 -10
-22 -9 -22 0 -22 1 -3 9 11 5 21 9 23 9 1 1 2 -3 2 -9z m-473 -6 c-3 -3 -12
-4 -19 -1 -8 3 -5 6 6 6 11 1 17 -2 13 -5z m5478 -60 c50 -9 128 -22 175 -29
47 -8 108 -20 135 -26 28 -7 65 -12 84 -11 18 0 41 -6 49 -14 8 -9 26 -14 38
-11 25 4 116 -8 177 -24 36 -9 38 -13 32 -37 -4 -15 -8 -28 -9 -29 -1 -1 -22
3 -46 9 -25 5 -76 15 -114 22 -53 9 -70 16 -72 30 -3 24 -10 30 -24 21 -9 -6
-9 -10 1 -16 10 -6 8 -9 -8 -9 -12 0 -25 5 -29 11 -4 8 -9 8 -13 1 -4 -7 -36
-5 -96 7 -50 10 -124 23 -165 30 -41 7 -91 16 -110 21 -19 4 -62 14 -94 22
-49 11 -60 17 -63 37 -3 22 -1 23 29 17 18 -4 74 -14 123 -22z m2037 -14 c6 0
8 -3 5 -6 -4 -4 -13 -1 -21 5 -10 8 -16 9 -21 1 -8 -13 -45 -13 -45 0 0 6 11
10 24 10 14 0 28 6 33 13 5 9 8 7 11 -5 2 -10 8 -18 14 -18z m48 20 c0 -5 -4
-10 -10 -10 -5 0 -10 5 -10 10 0 6 5 10 10 10 6 0 10 -4 10 -10z m-7354 -12
c3 -4 -11 -8 -30 -8 -19 0 -38 4 -41 10 -3 5 9 9 30 8 20 -1 38 -5 41 -10z
m1814 -9 c0 -5 -6 -9 -12 -9 -8 -1 -6 -6 5 -14 9 -7 17 -23 17 -35 0 -19 -5
-22 -32 -19 -25 2 -34 8 -36 26 -2 15 2 22 13 22 12 0 15 5 11 16 -3 9 -4 20
-1 24 7 11 35 2 35 -11z m106 10 c3 -6 1 -15 -6 -19 -9 -5 -9 -9 -1 -14 6 -4
11 -18 11 -32 0 -25 -20 -31 -54 -18 -24 9 -19 43 7 54 12 5 16 9 10 9 -7 1
-13 8 -13 16 0 17 35 20 46 4z m99 2 c3 -5 1 -13 -5 -16 -15 -9 -43 3 -35 15
8 13 32 13 40 1z m-312 -16 c-4 -15 -36 -12 -41 3 -3 9 3 13 19 10 13 -1 23
-7 22 -13z m-487 -23 c-22 -5 -30 3 -21 18 5 8 11 7 22 -2 15 -12 14 -13 -1
-16z m114 7 c0 -5 -7 -9 -15 -9 -15 0 -20 12 -9 23 8 8 24 -1 24 -14z m105 1
c-3 -11 -2 -20 3 -20 5 0 12 -42 16 -92 4 -51 9 -119 13 -152 l6 -58 -49 3
c-27 1 -65 0 -84 -4 -85 -16 -870 -34 -870 -20 0 5 4 13 9 19 13 15 21 83 9
90 -6 4 -7 21 -3 42 4 20 6 62 6 94 l0 59 37 -3 37 -3 3 -97 c2 -69 -1 -98 -9
-98 -8 0 -8 -4 -1 -12 5 -7 13 -28 17 -45 7 -36 25 -45 25 -14 0 34 12 51 36
51 17 0 22 4 18 15 -4 8 -17 15 -30 15 -21 0 -24 4 -24 40 l0 40 45 0 45 0 0
-39 c0 -22 -4 -41 -10 -43 -9 -3 8 -80 22 -93 3 -4 13 15 20 42 12 41 12 50 0
58 -8 7 -12 24 -10 45 4 33 6 35 46 38 l42 3 0 -45 c0 -25 -4 -46 -9 -46 -5 0
-2 -22 7 -49 10 -27 20 -47 25 -44 4 2 5 8 2 13 -7 11 15 70 26 70 5 0 9 -4 9
-10 0 -5 8 -10 18 -9 15 0 15 1 -2 12 -42 26 -53 44 -48 75 4 30 7 32 43 32
36 0 38 -2 45 -36 4 -20 2 -40 -4 -46 -11 -11 4 -68 18 -68 13 0 32 64 20 68
-11 4 -14 85 -3 96 11 11 13 38 3 56 -13 24 4 42 36 38 28 -3 29 -5 30 -58 0
-30 4 -71 8 -92 6 -27 5 -37 -6 -40 -12 -2 -11 -10 3 -48 l16 -44 20 44 c16
37 17 46 6 53 -7 5 -13 25 -13 48 l0 40 43 -3 c41 -3 42 -4 45 -41 3 -32 0
-39 -18 -44 -21 -6 -21 -6 -2 -27 11 -11 22 -30 24 -41 l5 -20 7 20 c4 11 12
28 17 38 7 13 7 23 -1 32 -6 8 -9 45 -6 101 l5 89 33 0 33 0 7 -90 c4 -68 3
-93 -7 -100 -11 -9 -10 -14 1 -30 8 -10 14 -30 15 -44 0 -16 3 -20 6 -11 3 8
14 32 23 52 15 31 15 38 4 42 -11 4 -14 24 -10 93 l4 88 33 0 34 0 6 -85 c3
-47 2 -90 -2 -96 -5 -6 -4 -28 2 -49 16 -58 29 -24 23 61 -3 58 -1 73 11 78
17 6 20 41 5 51 -20 12 -11 45 12 45 17 0 19 3 10 12 -18 18 -15 28 9 28 16 0
19 -4 14 -20z m-775 -1 c11 -8 12 -12 3 -16 -18 -7 -16 -23 2 -23 9 0 15 -9
15 -25 0 -22 -4 -25 -35 -25 -31 0 -35 3 -35 25 0 16 6 25 15 25 8 0 15 5 15
10 0 6 -4 10 -10 10 -5 0 -7 7 -4 15 7 18 14 18 34 4z m118 -7 c2 -7 -6 -12
-17 -12 -21 0 -27 11 -14 24 9 9 26 2 31 -12z m116 3 c3 -10 -1 -15 -14 -15
-20 0 -33 13 -23 24 11 11 31 6 37 -9z m106 0 c0 -8 -6 -15 -14 -15 -17 0 -28
14 -19 24 12 12 33 6 33 -9z m115 5 c3 -5 -3 -10 -14 -10 -12 0 -21 5 -21 10
0 6 6 10 14 10 8 0 18 -4 21 -10z m-562 -15 c-4 -15 -36 -12 -41 3 -3 9 3 13
19 10 13 -1 23 -7 22 -13z m6917 -1 c0 -2 -7 -4 -15 -4 -8 0 -15 4 -15 10 0 5
7 7 15 4 8 -4 15 -8 15 -10z m601 7 c-12 -8 -12 -12 2 -25 8 -9 20 -16 26 -16
6 0 11 -9 11 -20 0 -11 -7 -20 -15 -20 -8 0 -15 6 -15 14 0 7 -11 25 -26 39
-22 23 -23 26 -7 30 30 8 39 7 24 -2z m-6358 -20 c6 -24 0 -31 -28 -31 -26 0
-45 18 -38 36 8 22 60 18 66 -5z m3557 -6 c47 -9 108 -20 135 -24 28 -5 91
-16 140 -26 50 -10 104 -19 120 -20 17 -1 40 -7 53 -14 13 -7 30 -10 37 -7 7
2 55 -6 107 -19 66 -16 92 -27 89 -37 -2 -7 -4 -19 -4 -26 0 -9 -11 -11 -36
-6 -79 13 -142 28 -147 35 -2 5 -11 6 -19 3 -18 -7 -85 14 -85 27 0 5 -8 9
-17 9 -15 0 -16 -2 -3 -10 24 -16 3 -12 -202 30 -106 23 -220 45 -253 51 -60
10 -83 19 -51 19 9 0 14 5 11 10 -4 6 -10 8 -15 5 -4 -3 -11 2 -14 11 -7 18 4
17 154 -11z m-4483 -7 c18 -25 9 -43 -25 -46 -34 -3 -50 14 -38 43 7 18 50 20
63 3z m118 -18 c0 -19 -6 -26 -26 -28 -30 -4 -52 18 -43 42 5 12 16 16 38 14
26 -2 31 -7 31 -28z m225 5 c0 -22 -4 -25 -35 -25 -31 0 -35 3 -35 25 0 22 4
25 35 25 31 0 35 -3 35 -25z m5997 3 c-3 -8 -6 -5 -6 6 -1 11 2 17 5 13 3 -3
4 -12 1 -19z m-117 -203 c0 -8 -4 -15 -9 -15 -5 0 -11 7 -15 15 -3 9 0 15 9
15 8 0 15 -7 15 -15z m40 -39 c0 -3 -4 -8 -10 -11 -5 -3 -10 -1 -10 4 0 6 5
11 10 11 6 0 10 -2 10 -4z m-8055 -126 c3 -5 1 -10 -4 -10 -6 0 -11 -7 -11
-15 0 -10 -10 -15 -32 -15 -39 0 -126 29 -90 30 12 0 22 5 22 10 0 6 24 10 54
10 30 0 58 -4 61 -10z m8602 -112 c-3 -8 -6 -5 -6 6 -1 11 2 17 5 13 3 -3 4
-12 1 -19z m-213 -84 c9 -3 16 -12 16 -20 0 -12 -4 -12 -20 -2 -30 19 -27 34
4 22z m199 -71 c-7 -2 -19 -2 -25 0 -7 3 -2 5 12 5 14 0 19 -2 13 -5z"/>
<path d="M1010 4331 c-29 -25 -32 -31 -21 -45 7 -9 24 -16 37 -16 17 0 22 -4
18 -15 -4 -10 0 -15 14 -15 31 0 36 29 8 40 -30 11 -28 44 2 48 16 2 22 -2 22
-15 0 -33 20 -44 46 -26 30 19 30 37 2 57 -36 25 -88 20 -128 -13z"/>
<path d="M980 4180 c0 -5 4 -10 9 -10 6 0 13 5 16 10 3 6 -1 10 -9 10 -9 0
-16 -4 -16 -10z"/>
<path d="M2599 3786 c-7 -7 2 -86 10 -86 4 0 8 10 9 23 1 12 3 31 5 41 2 18
-14 32 -24 22z"/>
<path d="M2083 3703 c9 -2 23 -2 30 0 6 3 -1 5 -18 5 -16 0 -22 -2 -12 -5z"/>
<path d="M2323 3683 c9 -2 25 -2 35 0 9 3 1 5 -18 5 -19 0 -27 -2 -17 -5z"/>
<path d="M2645 3680 c-4 -6 9 -10 31 -10 42 0 42 4 2 14 -15 3 -30 2 -33 -4z"/>
<path d="M2763 3673 c9 -2 23 -2 30 0 6 3 -1 5 -18 5 -16 0 -22 -2 -12 -5z"/>
<path d="M610 3822 c0 -14 8 -21 27 -25 32 -6 43 -1 43 19 0 8 -9 14 -19 14
-11 0 -26 3 -35 6 -11 4 -16 0 -16 -14z"/>
<path d="M792 3810 c0 -14 2 -19 5 -12 2 6 2 18 0 25 -3 6 -5 1 -5 -13z"/>
<path d="M910 3805 c0 -8 5 -15 10 -15 6 0 10 7 10 15 0 8 -4 15 -10 15 -5 0
-10 -7 -10 -15z"/>
<path d="M980 3799 c0 -11 5 -19 12 -17 17 6 19 38 2 38 -8 0 -14 -9 -14 -21z"/>
<path d="M1027 3800 c6 -24 26 -21 31 3 2 11 -3 17 -16 17 -15 0 -19 -5 -15
-20z"/>
<path d="M1100 3798 c0 -10 7 -18 15 -18 8 0 15 5 15 10 0 6 5 10 11 10 5 0 7
-4 4 -10 -3 -5 3 -10 14 -10 13 0 21 6 21 18 0 14 -8 17 -40 17 -32 0 -40 -3
-40 -17z"/>
<path d="M1220 3795 c0 -8 2 -15 4 -15 2 0 6 7 10 15 3 8 1 15 -4 15 -6 0 -10
-7 -10 -15z"/>
<path d="M498 3653 c6 -2 18 -2 25 0 6 3 1 5 -13 5 -14 0 -19 -2 -12 -5z"/>
<path d="M1196 3645 c4 -8 10 -15 15 -15 4 0 6 7 3 15 -4 8 -10 15 -15 15 -4
0 -6 -7 -3 -15z"/>
<path d="M628 3643 c6 -2 18 -2 25 0 6 3 1 5 -13 5 -14 0 -19 -2 -12 -5z"/>
<path d="M808 3643 c6 -2 18 -2 25 0 6 3 1 5 -13 5 -14 0 -19 -2 -12 -5z"/>
<path d="M895 3640 c3 -5 11 -10 16 -10 6 0 7 5 4 10 -3 6 -11 10 -16 10 -6 0
-7 -4 -4 -10z"/>
<path d="M1018 3633 c7 -3 16 -2 19 1 4 3 -2 6 -13 5 -11 0 -14 -3 -6 -6z"/>
<path d="M1120 3630 c0 -5 12 -10 26 -10 14 0 23 4 19 10 -3 6 -15 10 -26 10
-10 0 -19 -4 -19 -10z"/>
<path d="M1278 3623 c7 -3 16 -2 19 1 4 3 -2 6 -13 5 -11 0 -14 -3 -6 -6z"/>
<path d="M1428 3623 c7 -3 16 -2 19 1 4 3 -2 6 -13 5 -11 0 -14 -3 -6 -6z"/>
<path d="M1480 3620 c20 -13 40 -13 40 0 0 6 -12 10 -27 10 -22 0 -25 -2 -13
-10z"/>
<path d="M1548 3623 c7 -3 16 -2 19 1 4 3 -2 6 -13 5 -11 0 -14 -3 -6 -6z"/>
<path d="M2767 3253 c-4 -3 -7 -11 -7 -17 0 -6 5 -5 12 2 6 6 9 14 7 17 -3 3
-9 2 -12 -2z"/>
<path d="M2095 3240 c3 -5 12 -10 20 -10 8 0 17 5 20 10 4 6 -5 10 -20 10 -15
0 -24 -4 -20 -10z"/>
<path d="M867 3403 c-2 -4 -1 -17 3 -28 7 -19 8 -19 15 -2 8 18 -9 46 -18 30z"/>
<path d="M920 3380 c8 -14 21 -20 45 -20 28 0 35 4 35 20 0 17 -7 20 -45 20
-43 0 -45 -1 -35 -20z"/>
<path d="M1052 3381 c3 -13 20 -16 101 -19 90 -2 98 -1 95 15 -3 16 -16 18
-101 19 -86 1 -98 -1 -95 -15z"/>
<path d="M1293 3383 c-8 -19 2 -26 37 -27 21 -1 30 4 30 15 0 22 -59 32 -67
12z"/>
<path d="M1476 3393 c-12 -12 -6 -33 9 -33 8 0 15 6 15 14 0 17 -14 28 -24 19z"/>
<path d="M1410 3375 c0 -8 4 -15 8 -15 5 0 9 7 9 15 0 8 -4 15 -9 15 -4 0 -8
-7 -8 -15z"/>
<path d="M805 3290 c3 -5 8 -10 11 -10 2 0 4 5 4 10 0 6 -5 10 -11 10 -5 0 -7
-4 -4 -10z"/>
<path d="M870 3289 c0 -5 5 -7 10 -4 6 3 10 8 10 11 0 2 -4 4 -10 4 -5 0 -10
-5 -10 -11z"/>
<path d="M936 3273 c10 -40 14 -41 14 -5 0 18 -5 32 -10 32 -6 0 -8 -11 -4
-27z"/>
<path d="M980 3272 c0 -38 23 -62 58 -62 21 0 24 2 12 10 -8 5 -23 10 -33 10
-15 0 -18 7 -15 32 2 19 -2 33 -9 35 -9 3 -13 -6 -13 -25z"/>
<path d="M1108 3265 c-3 -13 -2 -22 2 -20 11 7 20 45 10 45 -4 0 -10 -11 -12
-25z"/>
<path d="M1299 3258 c5 -22 13 -34 26 -36 17 -2 18 -1 5 10 -8 7 -14 23 -12
36 2 14 -2 22 -11 22 -11 0 -13 -8 -8 -32z"/>
<path d="M1350 3276 c0 -35 20 -66 42 -66 23 1 23 1 -4 20 -18 14 -24 26 -21
40 3 11 0 20 -6 20 -6 0 -11 -6 -11 -14z"/>
<path d="M1414 3268 c8 -42 18 -58 37 -58 25 0 24 17 -1 30 -15 8 -19 17 -15
31 5 13 2 19 -10 19 -11 0 -14 -7 -11 -22z"/>
<path d="M1186 3246 c5 -20 1 -25 -18 -29 -13 -2 -5 -5 20 -6 47 -1 48 0 26
34 -21 32 -36 32 -28 1z"/>
<path d="M1250 3231 c0 -12 6 -21 16 -21 9 0 14 7 12 17 -5 25 -28 28 -28 4z"/>
<path d="M565 3230 c-7 -11 38 -21 48 -11 5 5 -3 11 -18 13 -14 3 -28 2 -30
-2z"/>
<path d="M660 3230 c0 -5 5 -10 11 -10 5 0 7 5 4 10 -3 6 -8 10 -11 10 -2 0
-4 -4 -4 -10z"/>
<path d="M1606 3225 c-2 -7 2 -16 10 -19 22 -8 24 -8 24 8 0 19 -27 28 -34 11z"/>
<path d="M750 3220 c0 -5 14 -10 31 -10 17 0 28 4 24 10 -3 6 -17 10 -31 10
-13 0 -24 -4 -24 -10z"/>
<path d="M848 3223 c7 -3 16 -2 19 1 4 3 -2 6 -13 5 -11 0 -14 -3 -6 -6z"/>
<path d="M885 3220 c-4 -6 7 -10 27 -10 25 0 29 3 18 10 -19 13 -37 13 -45 0z"/>
<path d="M1568 3213 c7 -3 16 -2 19 1 4 3 -2 6 -13 5 -11 0 -14 -3 -6 -6z"/>
<path d="M6495 2980 c11 -5 29 -9 40 -9 l20 0 -20 9 c-11 5 -29 9 -40 9 l-20
0 20 -9z"/>
<path d="M7090 2930 c19 -13 30 -13 30 0 0 6 -10 10 -22 10 -19 0 -20 -2 -8
-10z"/>
<path d="M7105 2880 c3 -6 -4 -10 -16 -10 -54 0 -6 -8 76 -13 l90 -5 -62 11
c-34 7 -65 15 -69 20 -11 11 -26 9 -19 -3z"/>
<path d="M6498 2843 c7 -3 16 -2 19 1 4 3 -2 6 -13 5 -11 0 -14 -3 -6 -6z"/>
<path d="M6958 2843 c7 -3 16 -2 19 1 4 3 -2 6 -13 5 -11 0 -14 -3 -6 -6z"/>
<path d="M7055 2840 c3 -5 8 -10 11 -10 2 0 4 5 4 10 0 6 -5 10 -11 10 -5 0
-7 -4 -4 -10z"/>
<path d="M6957 2699 c7 -7 15 -10 18 -7 3 3 -2 9 -12 12 -14 6 -15 5 -6 -5z"/>
<path d="M2770 2891 c0 -16 28 -20 34 -5 4 9 -1 14 -14 14 -11 0 -20 -4 -20
-9z"/>
<path d="M6488 2713 c6 -2 18 -2 25 0 6 3 1 5 -13 5 -14 0 -19 -2 -12 -5z"/>
<path d="M6813 2653 c9 -2 23 -2 30 0 6 3 -1 5 -18 5 -16 0 -22 -2 -12 -5z"/>
<path d="M6958 2623 c7 -3 16 -2 19 1 4 3 -2 6 -13 5 -11 0 -14 -3 -6 -6z"/>
<path d="M2760 2460 c0 -24 15 -27 24 -4 9 22 8 24 -9 24 -8 0 -15 -9 -15 -20z"/>
<path d="M7048 2543 c7 -3 16 -2 19 1 4 3 -2 6 -13 5 -11 0 -14 -3 -6 -6z"/>
<path d="M7248 2493 c7 -3 16 -2 19 1 4 3 -2 6 -13 5 -11 0 -14 -3 -6 -6z"/>
<path d="M4528 5243 c7 -3 16 -2 19 1 4 3 -2 6 -13 5 -11 0 -14 -3 -6 -6z"/>
<path d="M7600 5090 c0 -5 5 -10 10 -10 6 0 10 5 10 10 0 6 -4 10 -10 10 -5 0
-10 -4 -10 -10z"/>
<path d="M6228 5043 c6 -2 18 -2 25 0 6 3 1 5 -13 5 -14 0 -19 -2 -12 -5z"/>
<path d="M6116 4978 c-20 -11 -21 -61 -1 -78 21 -17 62 -4 68 22 11 42 -30 77
-67 56z"/>
<path d="M4946 4941 c-4 -7 -5 -15 -2 -18 9 -9 19 4 14 18 -4 11 -6 11 -12 0z"/>
<path d="M2088 4813 c6 -2 18 -2 25 0 6 3 1 5 -13 5 -14 0 -19 -2 -12 -5z"/>
<path d="M2302 4700 c0 -14 2 -19 5 -12 2 6 2 18 0 25 -3 6 -5 1 -5 -13z"/>
<path d="M5652 4678 c-13 -18 -3 -78 14 -78 7 0 21 11 29 24 27 41 -13 90 -43
54z"/>
<path d="M4893 4665 c-8 -9 -9 -16 -3 -20 19 -12 -1 -24 -29 -19 -24 5 -30 2
-37 -17 -14 -42 -9 -60 21 -78 29 -18 32 -18 78 -1 26 9 44 19 41 23 -3 3 -12
3 -20 0 -15 -5 -18 9 -15 62 1 17 -4 38 -11 47 -11 14 -15 15 -25 3z"/>
<path d="M3218 4663 c7 -3 16 -2 19 1 4 3 -2 6 -13 5 -11 0 -14 -3 -6 -6z"/>
<path d="M3358 4653 c7 -3 16 -2 19 1 4 3 -2 6 -13 5 -11 0 -14 -3 -6 -6z"/>
<path d="M3578 4643 c7 -3 16 -2 19 1 4 3 -2 6 -13 5 -11 0 -14 -3 -6 -6z"/>
<path d="M3945 4590 c-4 -34 -13 -74 -21 -88 -7 -14 -11 -29 -8 -34 3 -4 0 -8
-5 -8 -6 0 -11 -4 -11 -10 0 -5 15 -10 33 -10 l32 0 3 91 c1 50 4 96 5 101 1
6 -3 12 -9 15 -8 2 -14 -18 -19 -57z"/>
<path d="M5960 4640 c0 -5 5 -10 10 -10 6 0 10 5 10 10 0 6 -4 10 -10 10 -5 0
-10 -4 -10 -10z"/>
<path d="M4420 4586 c-5 -14 -14 -26 -19 -26 -6 0 -8 -6 -5 -13 3 -10 -5 -12
-32 -9 -26 3 -35 1 -30 -7 4 -6 32 -11 62 -11 l54 0 0 39 c0 48 -16 62 -30 27z"/>
<path d="M5965 4600 c-3 -5 -1 -10 4 -10 6 0 11 5 11 10 0 6 -2 10 -4 10 -3 0
-8 -4 -11 -10z"/>
<path d="M4489 4583 c-5 -73 -11 -67 71 -74 41 -3 76 -6 76 -5 1 1 -1 16 -3
34 -4 26 -8 30 -19 21 -8 -6 -14 -19 -15 -28 0 -10 -3 -8 -10 7 -6 17 -14 22
-28 17 -13 -4 -20 0 -24 16 -3 11 -10 18 -16 14 -6 -3 -11 -1 -11 4 0 19 -20
12 -21 -6z"/>
<path d="M4551 4584 c0 -11 3 -14 6 -6 3 7 2 16 -1 19 -3 4 -6 -2 -5 -13z"/>
<path d="M4735 4589 c-16 -4 -24 -7 -16 -8 19 -1 5 -15 -17 -16 -59 -4 -63 -8
-17 -15 91 -15 105 -13 105 14 0 28 -14 35 -55 25z"/>
<path d="M5192 4548 c-25 -25 -8 -78 26 -78 9 0 12 6 8 16 -4 11 -1 14 12 10
13 -5 18 0 19 16 4 41 -37 64 -65 36z"/>
<path d="M4002 4490 l-2 -50 57 1 c40 0 52 3 38 8 -11 5 -30 7 -42 6 -18 -2
-23 3 -25 24 0 14 -2 32 -2 40 -1 8 -6 16 -11 18 -6 2 -12 -18 -13 -47z"/>
<path d="M4238 4533 c18 -2 45 -2 60 0 15 2 0 4 -33 4 -33 0 -45 -2 -27 -4z"/>
<path d="M4980 4444 c0 -27 4 -43 10 -39 6 3 10 17 10 31 0 16 6 24 17 24 15
0 14 2 -3 15 -30 22 -34 18 -34 -31z"/>
<path d="M4837 4453 c-4 -3 -7 -19 -7 -35 0 -37 37 -40 46 -4 9 37 -17 62 -39
39z"/>
<path d="M2424 4418 c-3 -4 10 -8 29 -8 19 0 76 -2 128 -4 l94 -5 -75 9 c-118
15 -170 17 -176 8z"/>
<path d="M4983 4335 c0 -22 2 -30 4 -17 2 12 2 30 0 40 -3 9 -5 -1 -4 -23z"/>
<path d="M5822 4320 c0 -19 2 -27 5 -17 2 9 2 25 0 35 -3 9 -5 1 -5 -18z"/>
<path d="M2706 4305 c-3 -8 -1 -15 4 -15 6 0 10 7 10 15 0 8 -2 15 -4 15 -2 0
-6 -7 -10 -15z"/>
<path d="M4670 4290 c0 -5 7 -10 15 -10 8 0 15 5 15 10 0 6 -7 10 -15 10 -8 0
-15 -4 -15 -10z"/>
<path d="M4130 4280 c0 -5 7 -10 16 -10 8 0 12 5 9 10 -3 6 -10 10 -16 10 -5
0 -9 -4 -9 -10z"/>
<path d="M2707 4273 c-2 -5 0 -21 4 -38 7 -29 7 -29 8 8 1 35 -3 46 -12 30z"/>
<path d="M3500 4262 c0 -14 11 -21 26 -15 8 3 11 9 8 14 -7 11 -34 12 -34 1z"/>
<path d="M4511 4266 c10 -9 209 -14 204 -6 -4 6 -52 10 -107 10 -56 0 -99 -2
-97 -4z"/>
<path d="M4013 4253 c15 -2 39 -2 55 0 15 2 2 4 -28 4 -30 0 -43 -2 -27 -4z"/>
<path d="M5819 4228 c-1 -18 -2 -50 -3 -70 0 -21 2 -38 7 -38 4 0 7 32 7 70 0
69 -9 100 -11 38z"/>
<path d="M3375 4235 c23 -8 83 -10 79 -3 -3 4 -24 8 -47 7 -23 0 -37 -2 -32
-4z"/>
<path d="M3488 4223 c7 -3 16 -2 19 1 4 3 -2 6 -13 5 -11 0 -14 -3 -6 -6z"/>
<path d="M3988 4153 c6 -2 18 -2 25 0 6 3 1 5 -13 5 -14 0 -19 -2 -12 -5z"/>
<path d="M4050 4150 c20 -13 87 -13 95 0 4 6 -16 10 -52 10 -41 0 -54 -3 -43
-10z"/>
<path d="M4596 4135 c4 -8 18 -15 34 -15 15 0 42 -3 59 -6 24 -5 31 -3 31 9 0
20 -21 27 -81 27 -39 0 -47 -3 -43 -15z"/>
<path d="M4910 4120 c0 -5 7 -10 16 -10 8 0 12 5 9 10 -3 6 -10 10 -16 10 -5
0 -9 -4 -9 -10z"/>
<path d="M5315 4110 c-3 -5 3 -10 14 -10 12 0 21 5 21 10 0 6 -6 10 -14 10 -8
0 -18 -4 -21 -10z"/>
<path d="M3400 4100 c8 -5 11 -10 5 -11 -14 -2 65 -18 93 -18 13 -1 22 5 22
14 0 8 -4 15 -9 15 -5 0 -17 3 -27 7 -12 4 -15 3 -10 -5 5 -8 -2 -12 -19 -12
-15 0 -24 4 -20 10 4 6 -6 10 -22 10 -22 0 -25 -2 -13 -10z"/>
<path d="M6187 4094 c-13 -13 -7 -24 14 -24 11 0 19 5 17 12 -5 14 -22 21 -31
12z"/>
<path d="M5740 4080 c0 -5 4 -10 9 -10 6 0 13 5 16 10 3 6 -1 10 -9 10 -9 0
-16 -4 -16 -10z"/>
<path d="M4210 4000 c0 -6 7 -10 15 -10 8 0 15 2 15 4 0 2 -7 6 -15 10 -8 3
-15 1 -15 -4z"/>
<path d="M4300 3986 c0 -12 -24 -13 -135 -9 l-135 6 0 -95 0 -95 29 -6 c29 -6
29 -6 24 -66 l-6 -60 94 4 94 3 5 56 c3 30 10 60 15 65 19 19 39 -6 41 -51 2
-69 4 -76 14 -53 5 11 9 37 9 58 1 42 16 53 56 43 21 -5 25 -12 27 -49 l1 -42
6 45 6 45 60 1 c79 0 95 -4 95 -24 1 -15 2 -15 14 1 10 12 24 17 43 15 26 -3
28 -7 33 -58 4 -39 8 -50 14 -37 5 9 6 31 4 48 -4 22 0 33 14 40 30 16 58 -6
56 -44 -1 -49 1 -59 13 -52 6 4 9 25 7 48 -2 32 1 42 17 47 34 12 45 0 45 -45
0 -24 4 -47 10 -50 10 -6 23 32 20 56 -5 32 1 39 33 39 27 0 32 4 33 24 2 22
-3 25 -35 28 -34 3 -36 5 -33 33 2 17 10 33 17 37 8 5 11 17 8 29 -5 19 -4 20
16 9 18 -9 20 -14 10 -26 -8 -10 -8 -14 0 -14 6 0 11 -9 11 -20 0 -13 7 -20
20 -20 15 0 21 -9 26 -40 4 -22 10 -40 13 -40 4 0 22 26 40 58 19 31 42 69 52
84 l18 26 -92 6 c-51 3 -193 8 -317 11 -253 6 -380 14 -380 25 0 4 -7 10 -15
14 -9 3 -15 0 -15 -8z m-72 -43 c-1 -10 1 -24 5 -30 5 -7 4 -13 -1 -13 -5 0
-7 -13 -4 -30 4 -30 4 -30 -41 -30 -40 0 -45 2 -40 20 3 11 15 30 27 43 11 12
20 30 18 40 -2 12 3 17 18 17 15 0 20 -5 18 -17z m91 3 c9 -11 9 -15 -1 -19
-10 -4 -11 -7 0 -18 21 -22 15 -66 -10 -72 -12 -3 -25 -4 -30 -1 -15 9 -8 66
10 80 10 8 12 13 5 14 -18 0 -16 30 1 30 7 0 19 -6 25 -14z m99 -14 c3 -9 -3
-13 -19 -10 -12 1 -24 9 -27 16 -3 9 3 13 19 10 12 -1 24 -9 27 -16z m75 -10
c-2 -12 1 -22 5 -22 5 0 6 -19 3 -42 -4 -29 -11 -43 -21 -43 -22 -1 -30 15
-30 58 0 28 4 37 17 37 13 0 14 3 5 12 -17 17 -15 30 6 26 11 -3 16 -12 15
-26z m93 1 c-4 -8 -3 -20 1 -26 14 -22 12 -65 -3 -71 -9 -3 -12 -10 -9 -16 3
-5 -1 -10 -10 -10 -9 0 -13 5 -10 10 3 6 -1 13 -10 16 -20 8 -17 71 3 79 8 3
12 11 9 19 -7 18 1 26 20 19 8 -3 12 -12 9 -20z m82 -1 c6 -18 -15 -14 -22 4
-4 10 -1 14 6 12 6 -2 14 -10 16 -16z m100 1 c2 -8 -5 -13 -17 -13 -12 0 -21
6 -21 16 0 18 31 15 38 -3z m76 11 c23 -9 20 -24 -4 -24 -11 0 -20 7 -20 15 0
17 2 18 24 9z m-426 -67 c3 -37 2 -38 -25 -35 -25 3 -28 7 -30 41 -1 36 1 38
25 35 23 -3 27 -8 30 -41z m260 -9 c3 -35 1 -38 -22 -38 -24 0 -26 4 -26 41 0
36 2 40 23 37 18 -2 23 -10 25 -40z m90 4 c2 -19 -3 -38 -12 -48 -9 -8 -16
-11 -16 -5 0 6 -7 11 -15 11 -10 0 -15 10 -15 33 0 40 7 49 35 45 15 -2 21
-12 23 -36z m87 -5 c2 -44 -17 -66 -40 -47 -15 13 -21 71 -8 84 4 4 16 6 26 4
15 -2 20 -12 22 -41z m-538 -43 c-3 -3 -12 -4 -19 -1 -8 3 -5 6 6 6 11 1 17
-2 13 -5z m90 0 c-3 -3 -12 -4 -19 -1 -8 3 -5 6 6 6 11 1 17 -2 13 -5z m260
-10 c-3 -3 -12 -4 -19 -1 -8 3 -5 6 6 6 11 1 17 -2 13 -5z"/>
<path d="M4607 3723 c-4 -3 -7 -11 -7 -17 0 -6 5 -5 12 2 6 6 9 14 7 17 -3 3
-9 2 -12 -2z"/>
<path d="M4086 3610 c8 -8 493 -30 692 -30 76 0 97 14 35 24 -71 11 -738 17
-727 6z"/>
<path d="M5268 3583 c12 -2 30 -2 40 0 9 3 -1 5 -23 4 -22 0 -30 -2 -17 -4z"/>
<path d="M5513 3573 c42 -2 112 -2 155 0 42 1 7 3 -78 3 -85 0 -120 -2 -77 -3z"/>
<path d="M4031 3462 c1 -69 4 -98 9 -82 l8 25 1 -27 c1 -17 7 -28 15 -28 10 0
16 -13 18 -37 3 -35 28 -61 28 -29 0 9 11 18 25 22 29 7 33 22 8 31 -23 8 -32
23 -26 40 5 14 88 19 96 6 3 -5 8 -32 11 -62 3 -30 8 -57 11 -59 8 -8 25 48
25 83 0 35 20 51 39 32 6 -6 11 -35 11 -64 l0 -53 104 0 104 0 6 31 c3 17 6
45 6 61 0 25 4 29 23 26 19 -3 22 -10 25 -60 l3 -57 89 -3 c50 -2 130 -2 179
0 l89 3 4 67 c5 84 2 91 -30 89 -25 -2 -27 1 -30 41 -3 40 -1 43 19 40 12 -2
23 -11 25 -21 4 -33 14 -48 24 -42 5 3 7 0 4 -9 -4 -11 0 -13 15 -9 17 4 21 1
22 -21 2 -44 4 -49 14 -52 6 -1 33 44 60 101 l51 104 -236 4 c-129 2 -246 7
-259 12 -17 6 -22 5 -17 -3 4 -7 -4 -9 -26 -7 -18 2 -149 7 -290 9 l-258 5 1
-107z m189 72 c0 -9 -7 -14 -17 -12 -25 5 -28 28 -4 28 12 0 21 -6 21 -16z
m90 0 c0 -9 -7 -14 -17 -12 -25 5 -28 28 -4 28 12 0 21 -6 21 -16z m83 -13
c-2 -11 1 -21 5 -21 4 0 6 -16 4 -35 -3 -29 -8 -35 -28 -35 -21 0 -24 5 -24
35 0 23 6 38 15 41 11 5 13 10 5 19 -11 13 -2 27 14 22 6 -2 10 -14 9 -26z
m97 14 c10 -12 10 -15 0 -15 -8 0 -9 -4 -3 -12 14 -20 15 -75 1 -81 -7 -2 -23
-1 -35 4 -17 6 -21 14 -17 36 3 15 10 31 16 34 6 4 7 12 4 18 -8 12 0 31 13
31 5 0 14 -7 21 -15z m90 -10 c0 -17 -2 -18 -24 -9 -23 9 -20 24 4 24 11 0 20
-7 20 -15z m83 8 c4 -3 2 -12 -4 -20 -9 -9 -8 -13 0 -13 14 0 15 -67 1 -75 -6
-3 -19 -3 -30 0 -26 8 -29 75 -4 75 11 0 14 6 9 20 -6 20 13 29 28 13z m95
-10 c2 -8 -5 -13 -17 -13 -12 0 -21 6 -21 16 0 18 31 15 38 -3z m90 0 c2 -8
-5 -13 -17 -13 -12 0 -21 6 -21 16 0 18 31 15 38 -3z m82 -4 c0 -11 -27 -12
-34 0 -3 4 -3 11 0 14 8 8 34 -3 34 -14z m-706 -49 c0 -31 -3 -35 -30 -38 -42
-3 -59 10 -45 37 7 12 9 26 5 32 -4 7 7 9 32 7 36 -3 38 -5 38 -38z m86 28 c0
-5 0 -21 0 -38 0 -25 -4 -30 -24 -30 -31 0 -35 7 -29 48 5 28 9 33 30 30 13
-2 23 -6 23 -10z m270 -28 c0 -38 -9 -60 -25 -60 -25 0 -36 84 -12 93 23 8 37
-5 37 -33z m177 -5 c1 -39 -8 -49 -37 -40 -35 11 -23 75 14 75 18 0 22 -6 23
-35z m87 10 c-2 -49 -5 -55 -24 -55 -16 0 -20 7 -20 33 0 19 3 37 7 41 13 13
38 1 37 -19z m-474 -125 c0 -5 -4 -10 -10 -10 -5 0 -10 5 -10 10 0 6 5 10 10
10 6 0 10 -4 10 -10z"/>
<path d="M5705 3551 c6 -11 -43 -12 -246 -10 l-254 4 -2 -178 -3 -177 285 0
c167 1 287 5 290 11 4 5 -14 9 -40 9 -25 0 -60 8 -78 17 l-32 18 72 5 c56 5
78 11 96 28 13 12 33 22 45 22 11 0 24 5 27 10 3 6 16 10 28 11 21 0 21 1 2 8
-11 4 -166 8 -344 9 -298 1 -343 3 -330 17 8 7 818 7 829 0 14 -9 39 19 52 57
6 18 22 50 35 71 14 22 22 41 20 44 -3 2 -99 8 -214 12 -114 4 -217 11 -227
16 -14 6 -17 5 -11 -4z m-387 -43 c6 -13 11 -17 11 -10 2 24 21 12 21 -14 0
-23 -3 -25 -37 -22 -32 2 -37 6 -35 23 2 11 8 22 13 23 5 2 7 8 3 13 -3 5 -1
9 4 9 5 0 14 -10 20 -22z m127 -15 c0 -18 -7 -29 -18 -31 -21 -4 -22 21 -2 38
8 7 12 17 8 23 -3 5 -2 7 4 4 5 -4 9 -19 8 -34z m177 1 c-4 -33 -17 -51 -26
-36 -9 16 5 73 18 69 6 -2 9 -17 8 -33z m33 16 c-3 -5 -1 -10 5 -10 6 0 8 -6
4 -12 -6 -10 -4 -10 7 0 16 15 43 16 33 1 -5 -8 -1 -8 14 0 27 14 35 14 26 -1
-6 -10 -4 -10 7 0 20 18 36 15 35 -8 0 -11 -4 -20 -8 -20 -5 0 -37 0 -73 0
-61 0 -65 1 -65 23 0 13 3 27 7 30 10 10 15 8 8 -3z m-257 -25 c0 -14 -6 -25
-13 -25 -7 0 -12 11 -11 25 1 33 24 33 24 0z m89 -5 c3 -24 -15 -37 -23 -16
-7 19 3 52 13 42 4 -4 8 -15 10 -26z m43 -1 c0 -11 -7 -19 -16 -19 -11 0 -14
5 -10 16 3 9 6 20 6 25 0 6 5 7 10 4 6 -3 10 -15 10 -26z m43 1 c-3 -11 -9
-20 -14 -20 -5 0 -9 9 -9 20 0 11 6 20 14 20 9 0 12 -7 9 -20z m417 4 c0 -8 5
-14 10 -14 6 0 10 7 10 15 0 8 7 15 15 15 9 0 15 -9 15 -24 0 -23 -3 -24 -56
-20 -31 2 -60 7 -65 10 -5 3 -9 2 -9 -3 0 -4 -25 -6 -55 -5 -30 2 -55 5 -55 7
0 26 17 31 100 32 72 1 90 -1 90 -13z m-210 -94 c0 -5 -4 -10 -10 -10 -5 0
-10 5 -10 10 0 6 5 10 10 10 6 0 10 -4 10 -10z m255 0 c3 -5 1 -10 -4 -10 -6
0 -11 5 -11 10 0 6 2 10 4 10 3 0 8 -4 11 -10z"/>
<path d="M5955 3480 c3 -5 8 -10 11 -10 2 0 4 5 4 10 0 6 -5 10 -11 10 -5 0
-7 -4 -4 -10z"/>
<path d="M7520 3231 c0 -5 -15 -12 -32 -17 l-33 -8 32 -3 c21 -3 34 -11 38
-24 7 -20 25 -26 25 -8 0 8 5 7 16 -2 13 -10 17 -10 25 2 12 20 11 26 -6 33
-8 3 -15 12 -15 21 0 8 -5 15 -10 15 -6 0 -8 -11 -4 -25 3 -14 2 -25 -3 -25
-16 0 -32 22 -26 36 3 8 2 14 -1 14 -3 0 -6 -4 -6 -9z"/>
<path d="M4091 3211 c14 -21 17 -21 381 -21 239 0 368 4 368 10 0 6 -50 10
-127 11 -379 2 -591 7 -611 14 -22 7 -23 6 -11 -14z"/>
<path d="M5688 3223 c6 -2 18 -2 25 0 6 3 1 5 -13 5 -14 0 -19 -2 -12 -5z"/>
<path d="M4535 3170 c-4 -6 -99 -10 -255 -10 -137 0 -251 -4 -254 -8 -2 -4 -2
-60 1 -125 5 -104 8 -117 24 -117 10 0 23 -8 28 -19 19 -34 74 -38 396 -30
171 4 342 8 381 8 l72 1 7 55 c3 30 11 58 17 61 6 4 8 -2 4 -17 -7 -24 -7 -24
8 1 12 20 16 22 17 8 1 -10 2 -24 3 -30 0 -7 8 -13 16 -13 9 0 29 37 55 100
22 55 44 106 48 113 6 9 -47 12 -258 12 -159 0 -274 4 -285 10 -13 7 -21 7
-25 0z m-140 -51 c-4 -11 -2 -19 4 -19 14 0 14 -67 1 -75 -6 -3 -19 -3 -30 0
-15 5 -20 15 -20 41 0 19 5 34 11 34 5 0 9 8 8 18 -2 28 0 32 16 26 10 -4 13
-13 10 -25z m183 13 c2 -7 -3 -12 -12 -12 -9 0 -16 7 -16 16 0 17 22 14 28 -4z
m182 -3 c0 -5 -9 -9 -20 -9 -19 0 -26 11 -14 23 8 8 34 -3 34 -14z m78 3 c2
-7 -3 -12 -12 -12 -9 0 -16 7 -16 16 0 17 22 14 28 -4z m82 8 c8 -5 11 -12 8
-16 -10 -9 -38 3 -38 16 0 12 10 13 30 0z m-701 -17 c-1 -10 0 -20 0 -23 1 -3
4 -20 6 -38 3 -39 -9 -47 -52 -35 -28 7 -29 10 -21 41 6 24 14 32 30 32 17 0
19 3 10 12 -18 18 -15 28 9 28 13 0 20 -6 18 -17z m94 10 c4 -3 2 -12 -4 -20
-7 -8 -8 -13 -1 -13 10 0 8 -67 -2 -77 -2 -3 -14 -2 -25 2 -26 8 -30 69 -5 79
13 5 14 9 4 21 -10 12 -9 15 7 15 11 0 23 -3 26 -7z m175 -47 c2 -57 -5 -70
-32 -60 -21 8 -19 74 2 74 9 0 11 7 7 20 -4 13 -2 20 7 20 10 0 14 -16 16 -54z
m177 44 c3 -5 -3 -10 -14 -10 -12 0 -21 5 -21 10 0 6 6 10 14 10 8 0 18 -4 21
-10z m-90 -65 c0 -33 -3 -40 -20 -40 -16 0 -20 7 -21 35 -1 43 3 52 24 48 13
-2 17 -14 17 -43z m93 2 c3 -37 2 -38 -25 -35 -24 2 -28 8 -29 33 -1 40 4 47
29 43 18 -2 23 -11 25 -41z m89 1 c3 -35 1 -38 -21 -38 -31 0 -39 13 -31 51 5
23 12 29 27 27 16 -2 22 -12 25 -40z m83 3 c0 -44 -13 -59 -36 -40 -12 10 -15
50 -5 77 1 1 10 2 21 2 17 0 20 -7 20 -39z m87 -1 c2 -36 0 -40 -22 -40 -30 0
-34 7 -28 48 4 25 10 32 27 32 18 0 22 -6 23 -40z"/>
<path d="M5330 3170 c0 -6 -30 -10 -70 -10 l-70 0 0 -176 0 -177 83 7 c45 3
189 6 320 7 131 0 245 3 253 6 8 3 14 14 14 24 0 19 9 23 43 20 9 -1 17 3 17
8 0 6 -18 11 -39 11 -22 0 -42 4 -45 9 -7 11 22 36 59 49 22 8 -56 11 -300 11
-194 1 -336 5 -345 11 -17 11 -24 11 370 12 267 1 417 -8 355 -23 -30 -7 -30
-7 7 -8 31 -1 41 5 66 37 16 20 37 53 47 72 9 19 28 50 42 68 l24 32 -375 0
c-244 0 -376 4 -376 10 0 14 -27 12 -33 -2 -4 -10 -7 -10 -18 0 -16 15 -29 16
-29 2z m-30 -61 c0 -25 -4 -30 -22 -27 -29 4 -34 24 -7 31 15 4 20 11 15 22
-3 9 -2 13 4 10 6 -3 10 -20 10 -36z m432 17 c-2 -9 2 -16 8 -16 5 0 10 4 10
9 0 5 15 8 33 6 23 -2 32 -7 32 -21 0 -15 -8 -18 -53 -19 l-52 -1 2 33 c1 18
7 32 13 30 5 -2 9 -11 7 -21z m-192 -4 c7 2 14 -7 16 -19 3 -20 -1 -23 -25
-23 -36 0 -41 7 -29 40 6 17 11 21 17 12 4 -7 14 -12 21 -10z m-197 -22 c-3
-11 -9 -18 -13 -15 -5 3 -6 14 -3 25 3 11 9 18 13 15 5 -3 6 -14 3 -25z m130
0 c-3 -11 -12 -20 -19 -20 -17 0 -17 5 -3 31 13 24 29 16 22 -11z m127 -1 c0
-20 -15 -26 -24 -10 -8 13 4 42 15 35 5 -3 9 -14 9 -25z m50 0 c0 -12 -5 -19
-11 -17 -6 2 -10 7 -10 11 1 4 1 14 1 23 0 8 5 12 10 9 6 -3 10 -15 10 -26z
m209 1 c4 0 12 5 19 12 9 9 12 7 12 -9 0 -17 -5 -21 -27 -20 -34 2 -45 15 -30
33 10 9 13 9 15 -2 2 -8 7 -14 11 -14z m-483 -17 c-11 -11 -19 6 -11 24 8 17
8 17 12 0 3 -10 2 -21 -1 -24z m310 20 c-2 -9 -8 -19 -14 -21 -14 -4 -15 0 -6
22 8 21 23 20 20 -1z m260 -121 c-10 -2 -22 0 -28 6 -6 6 0 7 19 4 21 -5 23
-7 9 -10z"/>
<path d="M7605 3170 c-3 -5 3 -10 15 -10 12 0 18 5 15 10 -3 6 -10 10 -15 10
-5 0 -12 -4 -15 -10z"/>
<path d="M7940 3122 c1 -20 31 -44 50 -39 13 3 20 0 20 -9 0 -10 -7 -13 -25
-8 -14 3 -33 3 -42 -2 -24 -10 49 -22 140 -23 52 -1 66 2 60 12 -4 6 -6 20 -5
30 2 10 -3 17 -13 17 -12 0 -15 -6 -10 -20 4 -11 2 -20 -4 -20 -6 0 -11 11
-11 25 0 17 6 25 17 25 9 0 14 3 10 6 -9 9 -187 15 -187 6z m130 -16 c0 -11
-19 -15 -25 -6 -3 5 1 10 9 10 9 0 16 -2 16 -4z m-3 -42 c-3 -3 -12 -4 -19 -1
-8 3 -5 6 6 6 11 1 17 -2 13 -5z"/>
<path d="M8370 2977 c0 -16 -3 -18 -12 -9 -16 16 -51 16 -46 0 3 -7 14 -14 26
-16 21 -3 32 -22 14 -22 -5 0 -9 -8 -9 -17 1 -49 -4 -74 -12 -69 -14 9 -1 -32
14 -44 10 -8 30 -8 72 -1 32 5 78 9 103 8 25 -1 84 -1 131 1 l86 2 -1 93 -1
92 -182 2 c-180 1 -183 1 -183 -20z"/>
<path d="M7835 2980 c-3 -5 1 -10 9 -10 9 0 16 5 16 10 0 6 -4 10 -9 10 -6 0
-13 -4 -16 -10z"/>
<path d="M6079 2938 c-9 -34 -4 -48 18 -48 20 0 24 5 21 22 -2 13 -11 24 -20
26 -10 2 -18 2 -19 0z"/>
<path d="M5943 2898 c1 -6 10 -20 20 -30 10 -10 15 -23 12 -28 -4 -6 8 -10 27
-9 31 0 32 1 11 11 -28 14 -30 32 -3 25 11 -3 18 -1 14 4 -3 5 -14 9 -25 9
-10 0 -19 5 -19 11 0 7 11 9 30 5 19 -3 29 -2 25 4 -9 15 -96 13 -92 -2z"/>
<path d="M1255 2890 l-60 -7 57 -1 c31 -1 60 3 63 8 3 6 5 9 3 8 -2 -1 -30 -4
-63 -8z"/>
<path d="M1410 2890 c0 -5 7 -10 15 -10 8 0 15 5 15 10 0 6 -7 10 -15 10 -8 0
-15 -4 -15 -10z"/>
<path d="M1538 2893 c7 -3 16 -2 19 1 4 3 -2 6 -13 5 -11 0 -14 -3 -6 -6z"/>
<path d="M1153 2883 c9 -2 23 -2 30 0 6 3 -1 5 -18 5 -16 0 -22 -2 -12 -5z"/>
<path d="M605 2840 l-30 -8 27 -1 c15 0 30 4 33 9 3 6 5 9 3 9 -2 -1 -16 -5
-33 -9z"/>
<path d="M4089 2816 c9 -11 9 -15 -1 -19 -17 -7 349 -6 597 2 177 6 197 8 170
20 -23 10 -62 11 -160 6 -236 -11 -545 -14 -550 -4 -4 5 -20 9 -37 9 -25 0
-28 -3 -19 -14z"/>
<path d="M538 2796 c-4 -19 -1 -29 9 -33 25 -10 33 11 14 36 l-18 24 -5 -27z"/>
<path d="M5525 2789 c-121 -3 -246 -7 -277 -8 -64 -1 -73 -12 -28 -34 20 -10
29 -11 27 -4 -1 7 9 12 23 12 24 0 25 -3 27 -62 l2 -63 -32 -1 c-18 -1 -43 -5
-57 -10 -19 -7 -15 -8 20 -4 49 4 77 -6 66 -24 -4 -6 -2 -11 3 -11 6 0 11 9
11 20 0 15 7 20 24 20 30 0 44 -18 21 -26 -13 -6 -14 -8 -3 -15 11 -7 10 -11
-2 -19 -13 -9 -13 -10 0 -11 50 -4 167 4 175 12 7 7 -17 8 -67 4 l-77 -6 1 96
1 96 25 -3 c28 -3 41 -24 19 -30 -11 -2 -12 -9 -6 -27 8 -20 12 -21 25 -11 8
7 11 16 6 19 -5 3 -8 17 -7 31 2 24 4 25 88 28 71 2 87 0 87 -12 0 -8 -6 -17
-12 -19 -10 -4 -10 -6 0 -6 28 -2 9 -20 -25 -24 -35 -3 -35 -4 9 -5 26 -1 50
3 53 8 3 6 2 10 -3 10 -5 0 -7 11 -4 25 4 23 9 25 58 25 32 0 54 -4 54 -11 0
-6 5 -5 13 3 10 10 52 13 160 13 81 0 147 3 147 8 0 4 20 7 45 7 25 0 45 5 45
10 0 11 -272 11 -635 -1z m-155 -119 c0 -6 -8 -10 -17 -10 -15 0 -14 -2 3 -15
18 -14 17 -14 -13 -15 -30 0 -33 3 -33 29 0 16 6 31 13 34 15 5 47 -10 47 -23z"/>
<path d="M4520 2768 c0 -4 -111 -9 -247 -10 l-248 -3 -3 -132 -3 -133 73 0
c51 0 68 -3 58 -10 -13 -8 -13 -10 2 -10 9 0 20 5 23 10 7 12 46 14 43 3 -2
-14 14 -43 24 -43 5 0 6 5 3 10 -3 6 -1 10 4 10 19 0 12 20 -6 21 -10 0 -5 4
10 9 34 10 57 3 57 -16 0 -8 9 -14 20 -14 14 0 20 6 18 18 -2 13 5 18 29 20
26 3 31 0 27 -15 -2 -10 0 -25 6 -33 9 -13 11 -13 20 0 6 8 8 23 6 33 -3 13 3
17 22 18 24 2 24 2 5 6 -19 4 -22 10 -20 39 1 19 5 35 10 35 4 1 12 2 18 3 9
1 17 -48 22 -136 2 -25 12 -22 25 7 6 14 16 25 22 25 6 0 8 6 4 13 -5 8 -2 8
9 -2 9 -7 17 -20 17 -28 0 -24 34 -10 48 20 7 15 17 27 22 27 13 0 30 -35 30
-62 0 -20 3 -18 22 15 26 45 46 48 54 8 5 -26 9 -28 24 -18 11 6 17 14 14 18
-2 4 0 10 6 14 6 4 8 11 5 16 -4 5 3 9 14 9 13 0 21 -9 26 -30 7 -31 25 -42
25 -15 0 8 5 15 10 15 6 0 10 6 10 14 0 7 14 16 30 20 28 5 30 8 30 51 0 32 4
45 14 45 8 0 17 6 19 13 3 6 6 -14 6 -45 2 -97 24 -77 74 67 19 55 37 107 41
115 6 14 -27 16 -284 15 -159 0 -290 -3 -290 -7z m399 -17 c9 -6 10 -11 2 -15
-13 -8 -31 1 -31 15 0 11 11 11 29 0z m-609 -22 c0 -5 -9 -9 -20 -9 -19 0 -26
11 -14 23 8 8 34 -3 34 -14z m90 0 c0 -11 -27 -12 -34 0 -3 4 -3 11 0 14 8 8
34 -3 34 -14z m85 10 c10 -15 -1 -23 -20 -15 -9 3 -13 10 -10 16 8 13 22 13
30 -1z m85 -10 c0 -5 -4 -9 -10 -9 -5 0 -10 7 -10 16 0 8 5 12 10 9 6 -3 10
-10 10 -16z m180 11 c0 -5 -7 -10 -15 -10 -8 0 -15 5 -15 10 0 6 7 10 15 10 8
0 15 -4 15 -10z m85 0 c3 -5 -1 -10 -9 -10 -8 0 -18 5 -21 10 -3 6 1 10 9 10
8 0 18 -4 21 -10z m-625 -10 c0 -5 -7 -10 -15 -10 -8 0 -15 5 -15 10 0 6 7 10
15 10 8 0 15 -4 15 -10z m543 -22 c-2 -5 -3 -22 -3 -39 0 -27 -3 -30 -27 -27
-23 2 -28 7 -25 28 4 42 11 52 34 48 13 -2 22 -6 21 -10z m82 -18 c3 -37 -4
-48 -26 -43 -14 4 -19 14 -19 40 0 30 3 34 22 31 15 -2 22 -11 23 -28z m92 18
c-2 -7 0 -23 4 -35 8 -21 6 -23 -26 -23 -36 0 -40 6 -29 48 4 15 14 22 31 22
15 0 23 -5 20 -12z m-725 -3 c17 -7 12 -85 -6 -85 -26 1 -37 18 -33 51 3 19 6
35 6 37 2 4 19 2 33 -3z m106 -37 c3 -35 1 -38 -22 -38 -31 0 -37 10 -30 49 5
25 11 31 28 29 16 -2 22 -11 24 -40z m92 2 c0 -36 -2 -40 -25 -40 -22 0 -25 4
-25 40 0 36 3 40 25 40 23 0 25 -4 25 -40z m90 0 c0 -32 -4 -40 -18 -40 -27 0
-39 17 -34 50 3 24 9 30 28 30 21 0 24 -5 24 -40z m90 6 c0 -22 -6 -36 -16
-40 -24 -9 -34 2 -34 40 0 30 3 34 25 34 22 0 25 -4 25 -34z m64 -2 c-1 -20
-5 -38 -8 -41 -12 -12 -26 11 -26 43 0 26 4 34 19 34 15 0 18 -7 15 -36z m-4
-94 c0 -5 -7 -10 -15 -10 -8 0 -15 5 -15 10 0 6 7 10 15 10 8 0 15 -4 15 -10z
m107 4 c-3 -3 -12 -4 -19 -1 -8 3 -5 6 6 6 11 1 17 -2 13 -5z m-7 -39 c15 -18
13 -22 -15 -27 -14 -2 -21 3 -23 20 -4 26 19 30 38 7z"/>
<path d="M6040 2730 c-16 -14 -27 -17 -34 -10 -15 15 -30 12 -17 -4 14 -16 69
-27 77 -14 3 4 26 9 52 10 l47 1 -50 6 c-32 4 -49 10 -47 19 3 16 -1 15 -28
-8z"/>
<path d="M6095 2740 c3 -5 10 -10 16 -10 5 0 9 5 9 10 0 6 -7 10 -16 10 -8 0
-12 -4 -9 -10z"/>
<path d="M8411 2736 c-9 -11 -10 -20 -1 -35 14 -27 26 -27 33 0 11 41 -10 62
-32 35z"/>
<path d="M493 2684 c1 -49 4 -54 24 -54 12 0 25 5 28 10 3 6 -3 10 -14 10 -17
0 -21 6 -21 35 0 19 1 35 3 35 1 1 29 3 62 6 84 8 81 13 -8 13 l-75 0 1 -55z"/>
<path d="M5865 2730 c-3 -5 -1 -10 4 -10 6 0 11 5 11 10 0 6 -2 10 -4 10 -3 0
-8 -4 -11 -10z"/>
<path d="M5548 2723 c7 -3 16 -2 19 1 4 3 -2 6 -13 5 -11 0 -14 -3 -6 -6z"/>
<path d="M5673 2710 c-1 -11 4 -20 11 -20 21 0 26 12 11 26 -18 18 -20 18 -22
-6z"/>
<path d="M5734 2713 c2 -12 14 -18 44 -20 23 -1 44 2 47 7 4 6 -9 10 -29 10
-20 0 -36 5 -36 10 0 6 -6 10 -14 10 -8 0 -13 -8 -12 -17z"/>
<path d="M5922 2719 c2 -7 10 -15 17 -17 8 -3 12 1 9 9 -2 7 -10 15 -17 17 -8
3 -12 -1 -9 -9z"/>
<path d="M5220 2705 c10 -13 9 -15 -11 -16 -18 -1 -20 -2 -6 -6 10 -3 25 -2
32 1 18 7 8 36 -12 36 -13 0 -13 -3 -3 -15z"/>
<path d="M5478 2713 c7 -3 16 -2 19 1 4 3 -2 6 -13 5 -11 0 -14 -3 -6 -6z"/>
<path d="M5850 2706 c0 -10 28 -13 41 -5 10 6 7 9 -13 9 -16 0 -28 -2 -28 -4z"/>
<path d="M1130 2696 c0 -2 7 -7 16 -10 8 -3 12 -2 9 4 -6 10 -25 14 -25 6z"/>
<path d="M1615 2690 c3 -5 8 -10 11 -10 2 0 4 5 4 10 0 6 -5 10 -11 10 -5 0
-7 -4 -4 -10z"/>
<path d="M5483 2689 c14 -8 22 -8 30 0 8 8 3 11 -18 11 -26 -1 -28 -2 -12 -11z"/>
<path d="M1205 2680 c-3 -5 3 -10 15 -10 12 0 18 5 15 10 -3 6 -10 10 -15 10
-5 0 -12 -4 -15 -10z"/>
<path d="M980 2670 c8 -5 20 -10 25 -10 6 0 3 5 -5 10 -8 5 -19 10 -25 10 -5
0 -3 -5 5 -10z"/>
<path d="M5970 2676 c0 -2 7 -6 15 -10 8 -3 15 -1 15 4 0 6 -7 10 -15 10 -8 0
-15 -2 -15 -4z"/>
<path d="M6090 2670 c0 -5 -11 -10 -25 -10 -25 0 -33 -14 -15 -25 6 -3 10 -1
10 6 0 8 11 9 35 5 34 -7 35 -6 23 13 -14 22 -28 28 -28 11z"/>
<path d="M5670 2660 c0 -5 7 -10 16 -10 8 0 12 5 9 10 -3 6 -10 10 -16 10 -5
0 -9 -4 -9 -10z"/>
<path d="M5730 2660 c8 -5 20 -10 25 -10 6 0 3 5 -5 10 -8 5 -19 10 -25 10 -5
0 -3 -5 5 -10z"/>
<path d="M5918 2663 c7 -3 16 -2 19 1 4 3 -2 6 -13 5 -11 0 -14 -3 -6 -6z"/>
<path d="M1510 2650 c0 -13 20 -13 40 0 12 8 9 10 -12 10 -16 0 -28 -4 -28
-10z"/>
<path d="M1588 2653 c7 -3 16 -2 19 1 4 3 -2 6 -13 5 -11 0 -14 -3 -6 -6z"/>
<path d="M5420 2644 c10 -11 9 -14 -6 -15 -16 0 -16 -2 4 -9 26 -11 29 -27 5
-33 -14 -4 -13 -5 4 -6 19 -1 21 4 20 37 -2 29 -6 38 -20 39 -15 2 -16 -1 -7
-13z"/>
<path d="M5482 2640 c10 -16 23 -20 63 -19 27 1 41 3 30 6 -11 2 -30 6 -43 9
-13 2 -20 9 -17 14 3 6 -5 10 -19 10 -24 0 -25 -2 -14 -20z"/>
<path d="M5608 2653 c6 -2 18 -2 25 0 6 3 1 5 -13 5 -14 0 -19 -2 -12 -5z"/>
<path d="M5793 2645 c0 -12 17 -15 101 -15 56 0 108 5 116 10 10 7 -17 9 -85
7 -55 -1 -107 2 -116 6 -11 5 -16 3 -16 -8z"/>
<path d="M950 2640 c-12 -8 -10 -10 8 -10 13 0 20 4 17 10 -7 12 -6 12 -25 0z"/>
<path d="M1258 2643 c18 -2 45 -2 60 0 15 2 0 4 -33 4 -33 0 -45 -2 -27 -4z"/>
<path d="M5218 2643 c7 -3 16 -2 19 1 4 3 -2 6 -13 5 -11 0 -14 -3 -6 -6z"/>
<path d="M863 2633 c15 -2 37 -2 50 0 12 2 0 4 -28 4 -27 0 -38 -2 -22 -4z"/>
<path d="M1078 2633 c6 -2 18 -2 25 0 6 3 1 5 -13 5 -14 0 -19 -2 -12 -5z"/>
<path d="M5625 2630 c-4 -6 8 -10 29 -10 36 0 49 -16 21 -26 -8 -4 -12 -10 -9
-15 3 -5 -7 -9 -23 -9 -21 0 -24 -3 -14 -9 8 -5 31 -8 50 -5 34 4 56 14 33 14
-7 0 -12 13 -12 29 0 25 5 30 28 34 15 2 -1 5 -35 6 -34 0 -65 -3 -68 -9z"/>
<path d="M6085 2610 c3 -5 10 -10 16 -10 5 0 9 5 9 10 0 6 -7 10 -16 10 -8 0
-12 -4 -9 -10z"/>
<path d="M6145 2610 c3 -5 8 -10 11 -10 2 0 4 5 4 10 0 6 -5 10 -11 10 -5 0
-7 -4 -4 -10z"/>
<path d="M6040 2595 c11 -13 6 -15 -38 -15 -28 0 -54 5 -57 10 -10 16 -35 12
-29 -5 7 -17 90 -19 179 -5 l50 7 -42 2 c-23 0 -45 6 -48 11 -3 6 -11 10 -17
10 -7 0 -6 -6 2 -15z"/>
<path d="M5740 2590 c0 -5 5 -10 11 -10 5 0 7 5 4 10 -3 6 -8 10 -11 10 -2 0
-4 -4 -4 -10z"/>
<path d="M5798 2593 c7 -3 16 -2 19 1 4 3 -2 6 -13 5 -11 0 -14 -3 -6 -6z"/>
<path d="M5488 2583 c7 -3 16 -2 19 1 4 3 -2 6 -13 5 -11 0 -14 -3 -6 -6z"/>
<path d="M5608 2583 c7 -3 16 -2 19 1 4 3 -2 6 -13 5 -11 0 -14 -3 -6 -6z"/>
<path d="M5218 2573 c7 -3 16 -2 19 1 4 3 -2 6 -13 5 -11 0 -14 -3 -6 -6z"/>
<path d="M5770 2570 l-45 -7 53 -1 c29 -1 52 2 52 8 0 6 -3 9 -7 8 -5 0 -28
-4 -53 -8z"/>
<path d="M5865 2570 c3 -5 10 -10 16 -10 5 0 9 5 9 10 0 6 -7 10 -16 10 -8 0
-12 -4 -9 -10z"/>
<path d="M1045 2558 c-209 -5 -426 -11 -482 -14 l-103 -6 0 -43 0 -43 82 4
c45 3 85 9 89 15 4 8 9 8 13 1 6 -10 373 -8 536 3 71 5 395 17 490 19 46 1 56
11 59 59 1 20 -17 20 -684 5z m459 -4 c36 -14 11 -20 -81 -20 -54 0 -133 -3
-176 -6 -42 -3 -80 -2 -83 3 -3 5 5 10 18 10 13 1 86 5 163 8 77 4 141 8 142
9 1 1 8 -1 17 -4z m66 -4 c0 -5 -7 -10 -16 -10 -8 0 -12 5 -9 10 3 6 10 10 16
10 5 0 9 -4 9 -10z m70 0 c0 -5 -7 -10 -15 -10 -8 0 -15 5 -15 10 0 6 7 10 15
10 8 0 15 -4 15 -10z m57 4 c-3 -3 -12 -4 -19 -1 -8 3 -5 6 6 6 11 1 17 -2 13
-5z m-940 -40 c-9 -9 -28 6 -21 18 4 6 10 6 17 -1 6 -6 8 -13 4 -17z m127 15
c-4 -8 1 -9 17 -3 30 10 109 11 115 2 2 -3 -8 -9 -24 -12 -37 -9 -202 -4 -196
5 2 4 -4 10 -13 12 -10 3 10 5 45 6 44 1 61 -2 56 -10z m226 1 c-36 -12 -70
-12 -70 0 0 6 21 10 48 9 38 -1 42 -2 22 -9z m-541 -9 c10 -7 10 -10 1 -16 -7
-4 -15 -3 -19 3 -3 6 -24 12 -46 15 l-40 4 45 1 c25 1 51 -2 59 -7z m64 2 c-7
-2 -19 -2 -25 0 -7 3 -2 5 12 5 14 0 19 -2 13 -5z m67 -3 c0 -5 -7 -7 -15 -4
-8 4 -15 8 -15 10 0 2 7 4 15 4 8 0 15 -4 15 -10z m-180 -40 c0 -5 -2 -10 -4
-10 -3 0 -8 5 -11 10 -3 6 -1 10 4 10 6 0 11 -4 11 -10z"/>
<path d="M5280 2560 c0 -5 12 -10 28 -10 21 0 24 2 12 10 -20 13 -40 13 -40 0z"/>
<path d="M5555 2560 c-3 -5 1 -10 10 -10 9 0 13 5 10 10 -3 6 -8 10 -10 10 -2
0 -7 -4 -10 -10z"/>
<path d="M5190 2550 c0 -4 10 -10 23 -14 32 -9 37 -7 31 8 -5 14 -54 19 -54 6z"/>
<path d="M6490 2556 c0 -2 33 -11 73 -21 115 -26 123 -27 112 -17 -17 16 -185
51 -185 38z"/>
<path d="M5866 2543 c-1 -2 -81 -5 -177 -9 -137 -4 -176 -9 -186 -20 -10 -13
-12 -14 -20 -1 -4 8 -27 18 -50 22 -34 5 -44 4 -49 -9 -5 -12 -16 -15 -48 -11
-22 3 54 -20 169 -50 204 -53 265 -64 265 -47 0 5 -14 6 -31 4 -20 -3 -34 0
-40 9 -15 24 -10 28 28 26 33 -2 38 1 41 21 3 17 10 22 30 21 15 0 21 -3 15
-6 -21 -8 -15 -20 13 -26 19 -3 29 2 41 19 16 24 56 33 68 14 3 -5 11 -10 16
-10 6 0 7 5 4 10 -4 6 18 10 59 10 39 0 66 4 66 10 0 6 -6 13 -12 15 -14 4
-198 12 -202 8z"/>
<path d="M6715 2506 c17 -9 41 -15 55 -16 14 0 54 -6 90 -14 265 -60 346 -74
301 -56 -13 6 -39 12 -58 15 -18 2 -37 6 -42 9 -7 5 -51 14 -241 51 -148 28
-139 27 -105 11z"/>
<path d="M6925 2490 c11 -5 29 -8 40 -8 16 0 15 2 -5 8 -34 11 -60 11 -35 0z"/>
<path d="M4100 2470 c0 -5 5 -10 10 -10 6 0 10 5 10 10 0 6 -4 10 -10 10 -5 0
-10 -4 -10 -10z"/>
<path d="M5190 2460 c0 -11 5 -20 10 -20 6 0 9 6 8 12 -2 8 8 12 27 11 25 -2
27 -1 10 6 -34 16 -55 13 -55 -9z"/>
<path d="M7008 2473 c7 -3 16 -2 19 1 4 3 -2 6 -13 5 -11 0 -14 -3 -6 -6z"/>
<path d="M9420 2463 c-47 -2 -89 -8 -94 -13 -4 -4 -24 -6 -42 -3 -31 5 -34 3
-34 -20 0 -18 7 -26 23 -31 20 -5 23 -11 20 -38 -7 -62 -13 -78 -29 -78 -11 0
-14 -6 -9 -22 8 -26 8 -25 6 -53 -2 -18 -4 -17 -13 5 l-10 25 -10 -25 -11 -25
-7 25 c-7 23 -8 23 -9 3 -1 -24 -23 -43 -29 -25 -2 7 -13 12 -24 12 -15 0 -18
-4 -13 -17 4 -10 7 -28 6 -40 0 -13 4 -23 9 -23 6 0 10 -4 10 -10 0 -5 -7 -10
-16 -10 -18 0 -44 -23 -44 -39 0 -6 5 -11 10 -11 6 0 10 5 10 12 0 9 3 9 11 1
14 -14 3 -34 -14 -27 -8 3 -27 -2 -43 -11 -16 -8 -23 -15 -16 -15 18 0 15 -18
-5 -23 -10 -3 0 -4 22 -2 22 1 32 0 23 -2 -10 -2 -18 -8 -18 -13 0 -10 70 -18
76 -8 3 4 11 5 19 2 8 -4 13 -10 10 -14 -5 -8 62 -25 200 -51 33 -6 80 -15
105 -20 25 -5 60 -11 78 -14 l32 -6 0 156 c0 163 -3 171 -44 140 -28 -21 -34
-19 -41 15 -7 34 -22 38 -41 13 -13 -17 -13 -17 -14 0 0 10 -7 26 -16 35 -15
15 -16 14 -10 -6 5 -13 3 -22 -3 -22 -6 0 -11 8 -11 18 0 15 -2 15 -11 2 -8
-12 -9 -10 -4 8 4 13 8 46 10 75 8 128 21 147 103 147 20 0 47 3 60 6 39 11
24 24 -25 22 -27 -1 -86 -4 -133 -5z m20 -304 c0 -5 -5 -7 -10 -4 -6 3 -14 -4
-19 -17 -9 -22 -10 -22 -10 -2 -1 11 2 24 6 27 10 11 33 8 33 -4z m-200 -89
c0 -11 -6 -20 -14 -20 -8 0 -16 -4 -18 -10 -5 -14 -24 2 -32 28 -7 20 -4 22
28 22 29 0 36 -4 36 -20z"/>
<path d="M6108 2433 c7 -3 16 -2 19 1 4 3 -2 6 -13 5 -11 0 -14 -3 -6 -6z"/>
<path d="M4581 2388 l-1 -46 -62 -4 c-67 -4 -91 -1 -83 12 3 4 -1 13 -9 19
-10 9 -16 8 -26 -4 -10 -12 -9 -15 6 -15 16 0 17 -2 4 -10 -24 -16 -73 -13
-67 4 3 8 0 17 -8 20 -17 6 -29 -21 -12 -28 7 -2 -8 -5 -32 -5 -33 -1 -42 2
-38 13 3 8 0 17 -7 19 -10 4 -12 -1 -9 -14 4 -13 0 -19 -13 -21 -34 -3 -77 -4
-166 -6 -49 -1 -88 -6 -88 -11 0 -5 40 -7 93 -5 50 3 243 11 427 19 898 38
1142 50 1105 56 -42 7 -248 3 -301 -6 -23 -4 -35 0 -49 15 -10 11 -24 20 -31
20 -7 0 -14 6 -17 13 -2 6 -6 0 -9 -15 -4 -23 -2 -28 16 -29 13 -1 7 -4 -14
-9 -28 -7 -267 -15 -317 -11 -7 1 -12 7 -10 14 1 6 -5 12 -13 12 -9 0 -14 -7
-12 -17 2 -15 -4 -18 -35 -18 -28 0 -34 3 -26 11 9 9 8 15 -2 25 -15 16 -29
19 -20 5 3 -5 0 -13 -6 -17 -8 -4 -7 -9 2 -15 9 -6 -2 -8 -31 -8 -25 0 -39 3
-33 6 9 3 10 10 4 21 -5 9 -10 22 -11 27 -4 22 -10 17 -10 -8 0 -15 -4 -27
-10 -27 -5 0 -9 -6 -7 -12 1 -7 -7 -13 -18 -13 -11 0 -19 6 -17 13 1 6 -2 12
-8 12 -5 0 -14 15 -19 33 -9 32 -9 31 -10 -15z"/>
<path d="M5913 2423 c15 -2 39 -2 55 0 15 2 2 4 -28 4 -30 0 -43 -2 -27 -4z"/>
<path d="M6008 2423 c6 -2 18 -2 25 0 6 3 1 5 -13 5 -14 0 -19 -2 -12 -5z"/>
<path d="M6828 2413 c7 -3 16 -2 19 1 4 3 -2 6 -13 5 -11 0 -14 -3 -6 -6z"/>
<path d="M6861 2406 c2 -2 24 -6 49 -9 30 -4 38 -3 25 3 -19 8 -83 14 -74 6z"/>
<path d="M6998 2403 c7 -3 16 -2 19 1 4 3 -2 6 -13 5 -11 0 -14 -3 -6 -6z"/>
<path d="M7220 2400 c34 -11 60 -11 35 0 -11 5 -29 8 -40 8 -16 0 -15 -2 5 -8z"/>
<path d="M4500 2395 c-1 -5 -2 -13 -1 -17 0 -5 -3 -8 -9 -8 -5 0 -10 -4 -10
-10 0 -5 9 -10 19 -10 11 0 23 5 26 10 3 6 2 10 -4 10 -5 0 -12 8 -14 18 -3 9
-6 13 -7 7z"/>
<path d="M9540 2390 c0 -5 5 -10 11 -10 5 0 7 5 4 10 -3 6 -8 10 -11 10 -2 0
-4 -4 -4 -10z"/>
<path d="M5760 2371 c34 -20 1038 -276 1047 -267 9 9 -34 22 -284 86 -131 34
-255 65 -275 71 -37 10 -38 11 -38 59 0 48 1 49 33 53 31 4 31 4 -5 5 l-38 2
0 -49 c0 -28 -4 -52 -9 -55 -5 -3 -30 1 -57 9 -70 21 -367 95 -379 95 -5 -1
-3 -4 5 -9z"/>
<path d="M6593 2368 c3 -16 39 -36 55 -30 18 6 15 22 -5 23 -15 0 -15 2 2 9
16 7 13 9 -17 9 -25 1 -37 -3 -35 -11z"/>
<path d="M1350 2366 c0 -2 7 -7 16 -10 8 -3 12 -2 9 4 -6 10 -25 14 -25 6z"/>
<path d="M3956 2351 c-3 -5 1 -11 9 -14 9 -4 12 -1 8 9 -6 16 -10 17 -17 5z"/>
<path d="M600 2340 c0 -5 5 -10 10 -10 6 0 10 5 10 10 0 6 -4 10 -10 10 -5 0
-10 -4 -10 -10z"/>
<path d="M525 2330 c-3 -5 3 -10 14 -10 12 0 21 5 21 10 0 6 -6 10 -14 10 -8
0 -18 -4 -21 -10z"/>
<path d="M1360 2329 c0 -5 5 -7 10 -4 6 3 10 8 10 11 0 2 -4 4 -10 4 -5 0 -10
-5 -10 -11z"/>
<path d="M478 2323 c7 -3 16 -2 19 1 4 3 -2 6 -13 5 -11 0 -14 -3 -6 -6z"/>
<path d="M3190 2279 c-236 -12 -1330 -59 -1374 -59 -38 0 -38 -1 -22 -19 9
-10 16 -22 15 -27 -1 -5 -1 -21 0 -36 l1 -28 78 1 c42 1 120 5 172 9 89 8 86
8 -42 5 -76 -2 -138 0 -138 4 0 4 42 9 93 11 50 2 119 4 152 6 33 1 173 7 310
13 138 6 276 13 308 16 36 4 57 2 57 -5 0 -5 12 -10 28 -9 l27 1 -25 8 c-22 7
-21 8 13 9 20 1 37 -3 37 -9 0 -5 7 -10 15 -10 9 0 15 10 15 26 0 14 4 23 10
19 6 -3 10 -1 10 4 0 6 -5 11 -10 11 -6 0 -2 9 9 21 11 12 28 19 43 17 19 -2
23 -10 26 -45 3 -41 5 -43 35 -43 41 0 491 22 494 24 1 1 5 23 8 49 l7 47 -99
-2 c-54 0 -168 -5 -253 -9z m-413 -55 c-3 -3 -12 -4 -19 -1 -8 3 -5 6 6 6 11
1 17 -2 13 -5z m91 -1 c-10 -2 -28 -2 -40 0 -13 2 -5 4 17 4 22 1 32 -1 23 -4z
m-420 -10 c-10 -2 -26 -2 -35 0 -10 3 -2 5 17 5 19 0 27 -2 18 -5z m75 0 c-7
-2 -21 -2 -30 0 -10 3 -4 5 12 5 17 0 24 -2 18 -5z m100 0 c-13 -2 -33 -2 -45
0 -13 2 -3 4 22 4 25 0 35 -2 23 -4z m90 0 c-7 -2 -19 -2 -25 0 -7 3 -2 5 12
5 14 0 19 -2 13 -5z m-430 -10 c-7 -2 -21 -2 -30 0 -10 3 -4 5 12 5 17 0 24
-2 18 -5z m84 1 c-3 -3 -12 -4 -19 -1 -8 3 -5 6 6 6 11 1 17 -2 13 -5z m-169
-11 c-10 -2 -26 -2 -35 0 -10 3 -2 5 17 5 19 0 27 -2 18 -5z m-345 -70 c-7 -2
-19 -2 -25 0 -7 3 -2 5 12 5 14 0 19 -2 13 -5z"/>
<path d="M8951 2244 c0 -11 3 -14 6 -6 3 7 2 16 -1 19 -3 4 -6 -2 -5 -13z"/>
<path d="M1485 2205 c-5 -2 -206 -11 -445 -20 -239 -8 -468 -18 -507 -21 -68
-5 -73 -7 -73 -29 0 -20 4 -23 28 -21 15 2 33 1 40 -2 20 -7 -5 -21 -43 -23
-22 -2 -18 -4 15 -8 28 -4 44 -11 43 -18 -2 -10 17 -13 75 -12 l77 2 -63 7
c-68 8 -95 20 -44 20 18 0 32 5 32 10 0 6 -14 10 -32 10 -51 0 -26 10 47 19
52 6 68 5 72 -6 3 -8 21 -13 44 -13 30 0 37 3 33 15 -5 11 1 15 21 15 25 0 27
-3 23 -35 l-4 -35 46 0 c25 0 225 9 445 20 220 11 403 20 408 20 4 0 7 25 7
55 l0 55 -117 -1 c-65 0 -122 -2 -128 -4z"/>
<path d="M2465 2150 l-100 -6 95 -2 c52 -1 102 3 110 8 8 5 11 9 5 8 -5 -1
-55 -5 -110 -8z"/>
<path d="M2637 2153 c18 -2 50 -2 70 0 21 2 7 4 -32 4 -38 0 -55 -2 -38 -4z"/>
<path d="M2248 2133 c23 -2 59 -2 80 0 20 2 1 4 -43 4 -44 0 -61 -2 -37 -4z"/>
<path d="M8368 2103 c6 -2 18 -2 25 0 6 3 1 5 -13 5 -14 0 -19 -2 -12 -5z"/>
<path d="M640 2090 c0 -5 5 -10 11 -10 5 0 7 5 4 10 -3 6 -8 10 -11 10 -2 0
-4 -4 -4 -10z"/>
<path d="M715 2082 c-27 -19 -14 -32 27 -27 48 6 53 9 43 24 -7 12 -55 14 -70
3z"/>
<path d="M4650 2086 c0 -2 9 -6 20 -9 11 -3 18 -1 14 4 -5 9 -34 13 -34 5z"/>
<path d="M6904 2081 c8 -13 -17 -6 521 -145 553 -144 1202 -306 1223 -306 51
0 -39 28 -343 105 -347 88 -797 204 -1075 277 -85 23 -184 46 -220 53 -36 7
-76 15 -89 20 -16 5 -21 4 -17 -4z"/>
<path d="M4750 2041 c57 -31 75 -37 66 -22 -7 10 -62 36 -96 45 -14 4 0 -7 30
-23z"/>
<path d="M4615 2010 c-177 -7 -162 -17 35 -24 57 -1 111 -9 135 -19 31 -12 62
-15 135 -11 130 7 145 11 129 30 -11 14 -30 15 -120 9 -87 -6 -112 -4 -137 9
-17 9 -32 15 -34 14 -2 -1 -66 -5 -143 -8z"/>
<path d="M4888 2013 c6 -2 18 -2 25 0 6 3 1 5 -13 5 -14 0 -19 -2 -12 -5z"/>
<path d="M5413 2013 c9 -2 25 -2 35 0 9 3 1 5 -18 5 -19 0 -27 -2 -17 -5z"/>
<path d="M5123 2003 c15 -2 37 -2 50 0 12 2 0 4 -28 4 -27 0 -38 -2 -22 -4z"/>
<path d="M4418 1993 c12 -2 30 -2 40 0 9 3 -1 5 -23 4 -22 0 -30 -2 -17 -4z"/>
<path d="M4293 1983 c9 -2 23 -2 30 0 6 3 -1 5 -18 5 -16 0 -22 -2 -12 -5z"/>
<path d="M5403 1963 c9 -2 23 -2 30 0 6 3 -1 5 -18 5 -16 0 -22 -2 -12 -5z"/>
<path d="M5155 1949 c-23 -4 7 -5 70 -2 61 3 112 7 114 9 8 7 -143 1 -184 -7z"/>
<path d="M67 1933 c-37 -2 -67 -8 -67 -13 0 -6 8 -10 18 -11 14 0 14 -2 -3 -9
-14 -6 0 -8 45 -8 36 0 54 3 40 5 -14 3 -29 9 -35 14 -6 7 45 8 145 5 163 -5
301 3 245 14 -16 3 -54 2 -84 -3 -37 -7 -71 -6 -104 2 -26 6 -67 10 -90 9 -23
-1 -72 -3 -110 -5z"/>
<path d="M6076 1917 c-94 -20 -101 -20 -146 -4 -58 21 -82 22 -55 3 29 -19
136 -56 128 -43 -4 7 0 8 11 4 10 -4 20 -7 22 -7 3 0 3 -4 -1 -10 -6 -10 93
-43 106 -34 5 3 9 1 9 -4 0 -5 9 -12 20 -15 11 -3 18 -1 15 3 -9 14 57 41 113
47 28 3 52 10 52 14 0 13 -177 11 -185 -1 -8 -12 -52 -13 -59 -1 -3 4 -20 12
-38 16 l-33 7 35 8 c19 4 56 11 83 15 26 3 47 10 47 16 0 11 -4 11 -124 -14z"/>
<path d="M168 1903 c18 -2 45 -2 60 0 15 2 0 4 -33 4 -33 0 -45 -2 -27 -4z"/>
<path d="M378 1893 c12 -2 30 -2 40 0 9 3 -1 5 -23 4 -22 0 -30 -2 -17 -4z"/>
<path d="M3847 1523 c-4 -208 -10 -570 -14 -805 -7 -461 -5 -447 -58 -412 -30
20 -39 42 -23 63 10 13 10 14 -2 4 -11 -11 -19 -8 -42 14 -26 24 -39 51 -20
39 4 -2 14 0 22 6 13 8 13 9 0 5 -10 -3 -22 6 -32 23 -15 26 -15 27 3 23 11
-3 19 -1 19 3 1 5 3 51 5 101 3 54 11 109 21 130 49 116 54 188 11 179 -12 -3
-58 -8 -102 -11 -44 -4 -102 -11 -130 -16 -27 -6 -75 -12 -105 -15 -30 -2 -57
-10 -61 -16 -4 -6 -40 -11 -83 -12 -42 0 -76 -4 -76 -8 0 -5 -19 -8 -42 -8
-24 0 -88 -7 -143 -15 -55 -8 -291 -38 -525 -65 -819 -98 -814 -97 -825 -83
-8 10 -51 8 -220 -12 -290 -33 -301 -35 -284 -46 11 -7 11 -9 -3 -9 -17 0 -18
-19 -18 -259 0 -142 3 -273 6 -290 l7 -32 421 4 c420 4 448 5 701 47 33 5 143
21 245 35 102 14 250 36 330 50 80 13 215 34 300 45 85 11 184 24 220 30 244
37 410 60 440 60 19 0 45 3 56 6 l21 6 3 541 c1 298 3 558 5 577 1 19 4 138 6
265 3 203 2 230 -12 233 -14 3 -17 -39 -22 -375z m-90 -649 c-3 -3 -12 -4 -19
-1 -8 3 -5 6 6 6 11 1 17 -2 13 -5z m-77 -437 c0 -6 -11 0 -25 13 -14 13 -25
28 -25 33 0 6 11 0 25 -13 14 -13 25 -28 25 -33z"/>
<path d="M4463 1883 c9 -2 25 -2 35 0 9 3 1 5 -18 5 -19 0 -27 -2 -17 -5z"/>
<path d="M4013 1853 c15 -2 37 -2 50 0 12 2 0 4 -28 4 -27 0 -38 -2 -22 -4z"/>
<path d="M6306 1818 c26 -21 59 -22 156 -6 58 9 67 13 48 20 -13 5 -69 7 -125
6 -98 -3 -101 -3 -79 -20z"/>
<path d="M6216 1801 c-8 -12 50 -32 69 -25 24 10 17 21 -16 28 -41 8 -47 8
-53 -3z"/>
<path d="M6620 1769 c0 -5 9 -9 20 -9 11 0 20 2 20 4 0 2 -9 6 -20 9 -11 3
-20 1 -20 -4z"/>
<path d="M6331 1755 c10 -10 38 -19 65 -22 56 -6 54 6 -3 17 -21 4 -47 11 -58
15 -19 7 -19 7 -4 -10z"/>
<path d="M6594 1703 c2 -9 14 -20 27 -25 22 -7 22 -7 7 6 -32 24 -19 28 75 22
64 -5 87 -4 77 4 -8 5 -54 10 -102 10 -75 0 -86 -2 -84 -17z"/>
<path d="M7380 1680 c0 -5 5 -10 10 -10 6 0 10 5 10 10 0 6 -4 10 -10 10 -5 0
-10 -4 -10 -10z"/>
<path d="M6742 1648 c22 -33 51 -37 46 -6 -2 17 -10 24 -32 26 -29 4 -29 3
-14 -20z"/>
<path d="M7410 1650 c8 -5 20 -10 25 -10 6 0 3 5 -5 10 -8 5 -19 10 -25 10 -5
0 -3 -5 5 -10z"/>
<path d="M7068 1629 c-5 -4 -8 -15 -6 -24 3 -20 142 -75 268 -108 88 -22 116
-25 113 -9 -3 14 13 16 22 2 3 -5 1 -10 -5 -10 -6 0 -8 -4 -5 -10 3 -5 1 -10
-5 -10 -6 0 -9 -4 -6 -9 6 -8 23 -13 111 -27 22 -3 45 -10 50 -14 6 -5 50 -18
99 -30 60 -14 95 -28 108 -43 12 -13 21 -18 24 -11 6 14 123 -30 140 -52 13
-16 74 -19 74 -4 0 6 -6 20 -12 31 -10 16 -10 23 -1 26 7 3 10 17 6 37 -6 41
11 48 86 34 29 -5 73 -8 99 -6 44 3 46 4 24 16 -50 28 -213 39 -197 12 3 -4
-4 -10 -14 -13 -24 -6 -123 3 -136 13 -5 4 -26 10 -45 14 -32 5 -31 4 15 -18
l50 -24 -42 2 c-30 1 -43 -2 -43 -12 0 -8 -9 -12 -22 -10 -17 2 -24 11 -26 33
-2 17 -8 34 -13 39 -14 15 -102 14 -127 -1 -26 -16 -42 -10 -42 17 0 24 -29
40 -70 40 -17 0 -53 10 -80 21 -27 12 -56 19 -65 16 -17 -7 -75 11 -75 23 0 5
-7 16 -16 24 -14 15 -12 16 19 16 20 0 37 -5 39 -11 2 -7 11 -10 19 -7 9 3 -1
12 -27 26 -34 17 -63 22 -158 24 -65 2 -122 0 -128 -3z"/>
<path d="M7817 1629 c10 -10 81 -25 71 -15 -3 4 -23 12 -43 16 -22 5 -34 5
-28 -1z"/>
<path d="M8065 1561 c-18 -7 -17 -10 13 -25 18 -9 56 -20 85 -23 l52 -6 -32
-11 c-25 -8 -30 -14 -23 -26 12 -19 194 -69 213 -59 15 9 82 -9 73 -19 -3 -3
-43 -8 -88 -12 -46 -4 -101 -16 -123 -26 -22 -10 -44 -18 -49 -18 -5 -1 -11
-7 -14 -15 -3 -10 1 -12 17 -8 17 4 21 1 21 -19 0 -21 -4 -24 -32 -22 -28 3
-34 -1 -36 -20 -2 -13 2 -30 8 -38 9 -10 9 -14 1 -14 -6 0 -11 -4 -11 -8 0 -7
84 -23 212 -42 26 -3 49 -3 50 2 2 4 37 -9 79 -30 42 -22 90 -42 107 -45 27
-6 31 -3 35 21 3 15 5 60 6 100 l0 73 -38 -2 c-25 -2 -49 4 -74 20 -29 18 -36
27 -34 51 2 25 6 29 22 24 13 -4 8 3 -12 18 -37 26 -38 41 -3 43 12 1 29 10
36 20 11 15 22 17 64 12 47 -6 50 -5 50 16 0 46 -12 51 -142 55 -68 2 -127 8
-132 13 -6 5 -31 9 -57 9 -26 0 -51 5 -54 10 -7 12 -161 12 -190 1z m525 -61
c0 -5 -2 -10 -4 -10 -3 0 -8 5 -11 10 -3 6 -1 10 4 10 6 0 11 -4 11 -10z m-42
-292 c6 -8 6 -22 1 -35 -7 -19 -16 -23 -48 -23 -30 0 -40 4 -43 18 -7 36 66
69 90 40z"/>
<path d="M7540 1550 c0 -5 3 -9 8 -9 19 3 33 -2 28 -10 -7 -11 14 -20 32 -13
9 3 4 11 -15 23 -31 21 -53 24 -53 9z"/>
<path d="M6948 1533 c7 -3 16 -2 19 1 4 3 -2 6 -13 5 -11 0 -14 -3 -6 -6z"/>
<path d="M7028 1533 c7 -3 16 -2 19 1 4 3 -2 6 -13 5 -11 0 -14 -3 -6 -6z"/>
<path d="M7890 1510 c0 -5 7 -10 16 -10 8 0 12 5 9 10 -3 6 -10 10 -16 10 -5
0 -9 -4 -9 -10z"/>
<path d="M4790 1503 c-25 -2 -155 -12 -290 -24 -135 -11 -282 -23 -327 -26
-58 -4 -83 -10 -83 -19 0 -7 5 -16 10 -19 6 -3 10 -1 10 5 0 7 7 9 15 6 9 -3
60 -1 113 4 232 25 297 31 462 45 96 8 180 15 187 15 8 0 13 -26 16 -82 l3
-83 2 93 2 92 -37 -2 c-21 -1 -58 -3 -83 -5z"/>
<path d="M7148 1493 c7 -3 16 -2 19 1 4 3 -2 6 -13 5 -11 0 -14 -3 -6 -6z"/>
<path d="M7976 1482 c-3 -6 -1 -14 5 -17 15 -10 25 3 12 16 -7 7 -13 7 -17 1z"/>
<path d="M4823 1463 c-23 -9 -15 -40 11 -45 41 -8 54 8 27 31 -13 12 -24 21
-25 20 -1 0 -7 -3 -13 -6z"/>
<path d="M4555 1439 c-49 -5 -98 -6 -109 -3 -13 5 -16 3 -11 -6 6 -10 0 -12
-26 -8 -33 6 -33 6 -6 -5 36 -14 34 -34 -3 -42 -23 -5 -30 -12 -30 -31 0 -15
-6 -24 -15 -24 -8 0 -15 7 -15 16 0 18 -23 44 -39 44 -6 0 -21 -10 -32 -21
l-22 -22 -14 27 c-8 14 -11 31 -8 36 3 6 -2 10 -12 10 -14 0 -19 -9 -20 -42
-2 -22 -10 -52 -18 -64 -8 -13 -15 -32 -15 -43 0 -11 -4 -21 -10 -23 -5 -1
-19 -28 -30 -58 -11 -30 -25 -56 -30 -58 -6 -2 -10 -17 -10 -33 0 -17 3 -28 8
-26 4 3 8 -61 9 -141 1 -84 7 -150 13 -156 5 -5 10 -15 10 -20 0 -6 -5 -4 -10
4 -13 19 -3 -120 12 -170 6 -19 10 -58 9 -87 -1 -37 2 -53 11 -53 10 0 9 -3
-1 -9 -11 -7 -12 -31 -7 -126 4 -65 12 -129 17 -142 5 -13 7 -41 4 -63 -4 -31
-2 -40 14 -45 10 -3 25 -3 34 1 9 3 24 1 33 -4 14 -8 6 -11 -34 -17 -29 -4
-52 -11 -52 -16 0 -12 18 -11 77 1 49 10 748 120 765 120 5 0 6 5 2 11 -6 10
-50 7 -117 -7 -67 -15 -443 -73 -567 -88 l-45 -6 50 13 c37 10 45 15 30 19
-11 3 5 4 35 2 39 -3 49 -2 35 5 -14 7 -4 8 35 5 39 -3 49 -2 35 5 l-20 10 20
1 c17 1 18 2 3 8 -11 5 -14 12 -9 20 6 11 20 11 65 3 31 -6 64 -15 73 -19 28
-16 51 -2 59 36 9 46 6 69 -12 98 -15 22 -14 22 38 28 29 3 58 6 63 6 6 0 31
-2 58 -6 l47 -7 0 42 c0 29 4 41 14 41 9 0 12 7 9 19 -3 10 0 28 6 40 8 14 8
21 1 21 -5 0 -10 9 -10 21 0 16 4 19 20 14 14 -4 20 -2 20 8 0 9 -5 17 -11 19
-5 2 -7 11 -4 21 8 20 41 23 49 5 4 -7 4 2 1 21 -3 18 -5 44 -5 58 0 14 -4 21
-10 18 -5 -3 -10 -16 -10 -28 0 -16 -3 -18 -12 -9 -16 16 -56 15 -73 -1 -36
-32 -47 -39 -52 -34 -11 11 9 47 27 47 34 0 50 12 50 36 0 31 -33 67 -56 62
-26 -5 -29 -34 -4 -41 25 -6 26 -25 3 -34 -10 -4 -21 -11 -25 -17 -5 -7 -8 -7
-8 2 0 6 -6 12 -14 12 -23 0 -29 20 -12 39 9 10 16 23 16 29 0 7 5 12 10 12 6
0 10 19 10 41 0 36 2 40 15 29 20 -17 26 -10 35 42 6 33 5 47 -7 60 -13 15
-13 18 6 28 23 12 27 44 10 87 -6 15 -13 98 -14 183 -2 85 -8 169 -13 185 -8
27 -13 30 -45 29 -21 -1 -37 3 -37 8 0 6 -13 8 -30 6 -30 -5 -41 6 -17 15 10
4 10 6 0 6 -7 1 -13 8 -13 16 0 16 1 16 -135 4z m67 -39 c-2 -14 -10 -32 -18
-41 -8 -8 -14 -21 -14 -27 0 -7 -7 -12 -15 -12 -8 0 -24 -6 -35 -12 -15 -10
-22 -10 -32 0 -9 9 -6 12 15 12 18 0 27 5 27 15 0 9 7 18 15 21 23 9 19 44 -5
44 -12 0 -20 -7 -20 -17 0 -9 -3 -14 -6 -10 -11 11 8 49 22 43 7 -3 16 -1 20
5 3 6 16 9 27 7 17 -2 21 -9 19 -28z m38 15 c0 -8 -4 -15 -10 -15 -5 0 -10 7
-10 15 0 8 5 15 10 15 6 0 10 -7 10 -15z m-47 -142 c-7 -2 -19 -2 -25 0 -7 3
-2 5 12 5 14 0 19 -2 13 -5z m-372 -46 c-8 -8 -14 -8 -23 1 -9 9 -8 12 5 12 9
0 18 8 18 18 1 15 2 15 6 -2 3 -10 0 -23 -6 -29z m319 7 c0 -8 -5 -12 -10 -9
-6 4 -8 11 -5 16 9 14 15 11 15 -7z m159 0 c2 -2 -14 -4 -37 -4 -31 0 -42 -4
-42 -15 0 -11 11 -15 40 -15 22 0 40 -5 40 -10 0 -6 -27 -9 -65 -8 -36 1 -65
4 -65 7 0 4 9 12 21 19 11 7 18 19 15 27 -4 12 4 13 42 8 26 -3 49 -7 51 -9z
m-266 -1 c-7 -2 -21 -2 -30 0 -10 3 -4 5 12 5 17 0 24 -2 18 -5z m317 -27 c0
-15 -14 -35 -21 -30 -15 9 -10 34 6 34 8 0 15 -2 15 -4z m-603 -56 c-12 -17
-15 -18 -20 -5 -4 8 -2 15 3 15 6 0 10 8 10 17 0 13 3 14 11 6 8 -8 7 -17 -4
-33z m358 20 c3 -5 1 -10 -4 -10 -6 0 -11 5 -11 10 0 6 2 10 4 10 3 0 8 -4 11
-10z m-408 -82 c-3 -8 -6 -5 -6 6 -1 11 2 17 5 13 3 -3 4 -12 1 -19z m22 -106
c1 -7 -3 -10 -9 -7 -5 3 -10 18 -9 33 0 24 1 25 9 7 5 -11 9 -26 9 -33z m551
23 c11 -13 10 -14 -4 -9 -9 3 -16 10 -16 15 0 13 6 11 20 -6z m-95 -5 c3 -5 1
-10 -4 -10 -6 0 -11 5 -11 10 0 6 2 10 4 10 3 0 8 -4 11 -10z m-478 -82 c-3
-7 -5 -2 -5 12 0 14 2 19 5 13 2 -7 2 -19 0 -25z m443 -508 c0 -32 -1 -33 -24
-24 -19 7 -21 25 -4 42 19 19 28 14 28 -18z m215 -40 c3 -5 -1 -10 -10 -10 -9
0 -13 5 -10 10 3 6 8 10 10 10 2 0 7 -4 10 -10z m23 -37 c2 -8 -6 -13 -22 -13
-26 0 -40 12 -29 24 11 11 46 2 51 -11z m-428 -73 c0 -11 -4 -20 -9 -20 -5 0
-16 -3 -25 -6 -22 -8 -20 15 2 32 24 19 32 17 32 -6z m-36 -49 c3 -5 -1 -11
-9 -14 -9 -4 -12 -1 -8 9 6 16 10 17 17 5z m206 -7 c0 -2 -12 -4 -27 -4 -21 0
-24 3 -14 9 13 8 41 5 41 -5z m-230 -104 c-26 -6 -29 -8 -11 -9 13 0 22 -4 18
-7 -3 -4 -23 -3 -44 1 -32 6 -35 9 -18 15 11 5 36 8 55 8 l35 -1 -35 -7z"/>
<path d="M4304 1418 c-3 -5 -18 -6 -33 -3 -20 4 -28 2 -28 -8 0 -11 8 -12 36
-6 55 13 71 11 71 -8 0 -15 2 -16 9 -3 6 8 8 17 5 21 -7 11 -54 17 -60 7z"/>
<path d="M4758 1423 c6 -2 18 -2 25 0 6 3 1 5 -13 5 -14 0 -19 -2 -12 -5z"/>
<path d="M4072 1398 c-11 -11 -6 -197 6 -208 2 -3 2 39 0 93 -4 75 -2 97 8 97
7 0 15 4 18 9 9 13 -20 21 -32 9z"/>
<path d="M4158 1403 c7 -3 16 -2 19 1 4 3 -2 6 -13 5 -11 0 -14 -3 -6 -6z"/>
<path d="M4145 1381 c-3 -5 -1 -12 5 -16 5 -3 10 1 10 9 0 18 -6 21 -15 7z"/>
<path d="M7778 1293 c7 -3 16 -2 19 1 4 3 -2 6 -13 5 -11 0 -14 -3 -6 -6z"/>
<path d="M7965 1251 c-6 -5 -26 -11 -45 -14 -24 -2 -16 -4 24 -5 51 -2 57 0
46 13 -15 18 -13 17 -25 6z"/>
<path d="M7858 1243 c7 -3 16 -2 19 1 4 3 -2 6 -13 5 -11 0 -14 -3 -6 -6z"/>
<path d="M4016 1128 c-10 -41 -7 -928 4 -928 7 0 10 165 10 475 0 261 -2 475
-4 475 -2 0 -6 -10 -10 -22z"/>
<path d="M8420 1120 c0 -5 7 -10 16 -10 8 0 12 5 9 10 -3 6 -10 10 -16 10 -5
0 -9 -4 -9 -10z"/>
<path d="M4041 1094 c0 -11 3 -14 6 -6 3 7 2 16 -1 19 -3 4 -6 -2 -5 -13z"/>
<path d="M4042 995 c0 -61 2 -72 8 -46 4 18 4 54 0 80 -7 41 -8 37 -8 -34z"/>
<path d="M8536 1022 c-8 -13 7 -28 42 -40 27 -9 34 -9 39 3 3 9 0 22 -7 30
-13 16 -65 21 -74 7z"/>
<path d="M4927 909 c4 -13 8 -18 11 -10 2 7 -1 18 -6 23 -8 8 -9 4 -5 -13z"/>
<path d="M4045 530 c0 -206 1 -291 2 -188 2 104 2 272 0 375 -1 104 -2 19 -2
-187z"/>
<path d="M3950 869 c0 -12 5 -19 12 -17 18 6 20 25 3 31 -10 5 -15 0 -15 -14z"/>
<path d="M3950 814 c0 -14 4 -23 9 -20 5 3 7 15 4 26 -7 28 -13 25 -13 -6z"/>
<path d="M4072 800 c0 -14 2 -19 5 -12 2 6 2 18 0 25 -3 6 -5 1 -5 -13z"/>
<path d="M4074 455 c0 -256 1 -279 6 -130 l6 180 2 -187 c2 -184 2 -188 23
-188 20 0 21 3 15 63 -4 34 -11 131 -15 215 -8 143 -18 204 -23 136 -1 -16 -5
27 -8 96 -4 80 -6 13 -6 -185z"/>
<path d="M3957 513 c1 -113 4 -208 7 -211 7 -6 8 76 6 273 -1 72 -4 133 -8
137 -4 4 -6 -85 -5 -199z"/>
<path d="M4895 630 c3 -5 8 -10 11 -10 2 0 4 5 4 10 0 6 -5 10 -11 10 -5 0 -7
-4 -4 -10z"/>
<path d="M5440 487 c-80 -12 -137 -23 -127 -25 11 -2 73 4 140 13 73 11 147
15 187 12 76 -6 71 -3 534 -310 147 -98 270 -176 273 -173 3 2 -6 10 -18 17
-13 7 -181 117 -374 245 -407 271 -366 256 -615 221z"/>
<path d="M5238 453 c12 -2 30 -2 40 0 9 3 -1 5 -23 4 -22 0 -30 -2 -17 -4z"/>
<path d="M5105 440 c-34 -6 -35 -7 -10 -8 17 0 50 3 75 7 40 8 41 8 10 8 -19
0 -53 -3 -75 -7z"/>
<path d="M4976 422 c-2 -4 12 -6 32 -4 56 5 62 10 15 11 -23 1 -44 -3 -47 -7z"/>
<path d="M4880 316 c0 -9 5 -16 10 -16 6 0 10 4 10 9 0 6 -4 13 -10 16 -5 3
-10 -1 -10 -9z"/>
<path d="M4960 309 c0 -5 5 -7 10 -4 6 3 10 8 10 11 0 2 -4 4 -10 4 -5 0 -10
-5 -10 -11z"/>
<path d="M3940 270 c0 -5 -9 -10 -20 -10 -11 0 -20 -5 -20 -11 0 -10 52 -4 73
8 14 9 7 23 -13 23 -11 0 -20 -4 -20 -10z"/>
<path d="M4800 241 c0 -17 3 -18 25 -8 32 15 32 27 0 27 -18 0 -25 -5 -25 -19z"/>
<path d="M4880 211 c0 -6 6 -11 13 -12 6 -1 1 -5 -13 -9 -24 -9 -24 -9 5 -7
33 2 43 29 13 35 -10 2 -18 -1 -18 -7z"/>
<path d="M4770 185 c46 -18 61 -18 30 0 -14 8 -34 14 -45 14 -13 0 -8 -5 15
-14z"/>
<path d="M4720 175 c0 -4 7 -13 14 -21 11 -11 26 -13 58 -7 l43 7 -35 6 c-19
4 -45 10 -57 14 -13 4 -23 4 -23 1z"/>
<path d="M4858 163 c12 -2 30 -2 40 0 9 3 -1 5 -23 4 -22 0 -30 -2 -17 -4z"/>
<path d="M880 99 c-69 -10 -249 -34 -400 -54 -151 -19 -282 -37 -290 -39 -8
-2 189 -4 438 -5 l452 -1 0 60 0 60 -37 -1 c-21 -1 -94 -9 -163 -20z"/>
<path d="M4570 110 c-8 -5 -10 -10 -5 -10 6 0 17 5 25 10 8 5 11 10 5 10 -5 0
-17 -5 -25 -10z"/>
<path d="M4518 103 c6 -2 18 -2 25 0 6 3 1 5 -13 5 -14 0 -19 -2 -12 -5z"/>
</g>
</svg>
